<?xml version="1.0" encoding="UTF-8" standalone="no"?>
<svg
   xmlns:dc="http://purl.org/dc/elements/1.1/"
   xmlns:cc="http://creativecommons.org/ns#"
   xmlns:rdf="http://www.w3.org/1999/02/22-rdf-syntax-ns#"
   xmlns:svg="http://www.w3.org/2000/svg"
   xmlns="http://www.w3.org/2000/svg"
   xmlns:sodipodi="http://sodipodi.sourceforge.net/DTD/sodipodi-0.dtd"
   xmlns:inkscape="http://www.inkscape.org/namespaces/inkscape"
   sodipodi:docname="Icono.svg"
   inkscape:version="1.0 (4035a4fb49, 2020-05-01)"
   id="svg1085"
   version="1.1"
   viewBox="0 0 100 100"
   height="100mm"
   width="100mm">
  <defs
     id="defs1079" />
  <sodipodi:namedview
     inkscape:window-maximized="1"
     inkscape:window-y="-8"
     inkscape:window-x="-8"
     inkscape:window-height="917"
     inkscape:window-width="1918"
     showgrid="false"
     inkscape:document-rotation="0"
     inkscape:current-layer="layer1"
     inkscape:document-units="mm"
     inkscape:cy="516.22862"
     inkscape:cx="169.94053"
     inkscape:zoom="0.49497475"
     inkscape:pageshadow="2"
     inkscape:pageopacity="0.0"
     borderopacity="1.0"
     bordercolor="#666666"
     pagecolor="#ffffff"
     id="base" />
  <metadata
     id="metadata1082">
    <rdf:RDF>
      <cc:Work
         rdf:about="">
        <dc:format>image/svg+xml</dc:format>
        <dc:type
           rdf:resource="http://purl.org/dc/dcmitype/StillImage" />
        <dc:title></dc:title>
      </cc:Work>
    </rdf:RDF>
  </metadata>
  <g
     id="layer1"
     inkscape:groupmode="layer"
     inkscape:label="Capa 1">
    <g
       style="font-size:63.5px;line-height:1.25;font-family:'Kaushan Script';-inkscape-font-specification:'Kaushan Script, Normal';stroke-width:0.765;fill:#a0892c;fill-opacity:1;stroke:#000000;stroke-opacity:1;stroke-miterlimit:4;stroke-dasharray:none"
       id="text1095"
       aria-label="SR">
      <path
         id="path1097"
         style="font-size:63.5px;fill:#a0892c;stroke-width:0.765;fill-opacity:1;stroke:#000000;stroke-opacity:1;stroke-miterlimit:4;stroke-dasharray:none"
         d="m 48.350039,27.225612 q 0.1905,1.0795 0.254,1.524 0.127,0.381 0.127,1.0795 0,2.0955 -0.9525,3.937 -0.889,1.778 -2.4765,2.54 -1.27,-1.7145 -3.1115,-2.921 -1.8415,-1.27 -4.064,-2.032 -2.159,-0.8255 -4.5085,-1.2065 -2.3495,-0.381 -4.572,-0.381 -2.2225,0 -4.191,0.381 -1.905,0.3175 -3.429,0.9525 -1.4605,0.5715 -2.3495,1.4605 -0.8255,0.889 -0.8255,2.032 0.1905,1.397 1.7145,2.8575 1.524,1.397 3.7465,2.794 2.2225,1.3335 4.8895,2.667 2.7305,1.3335 5.334,2.54 3.2385,1.524 5.588,2.8575 2.3495,1.27 3.8735,2.8575 1.524,1.524 2.286,3.4925 0.762,1.9685 0.762,4.7625 0,3.2385 -1.0795,6.096 -1.0795,2.794 -3.175,4.8895 -2.032,2.0955 -4.953,3.2385 -2.921,1.2065 -6.5405,1.2065 -3.556,0 -7.6835,-1.0795 -4.1275,-1.0795 -7.747,-2.9845 -3.556,-1.8415 -5.9690002,-4.2545 -2.3495,-2.4765 -2.3495,-5.207 0,-1.27 0.6985,-3.2385 0.762,-1.9685 2.6670002,-4.1275 0.1905,1.905 2.032,4.5085 1.905,2.6035 5.6515,4.826 3.4925,2.032 7.1755,2.9845 3.7465,0.889 6.985,0.889 3.556,0 5.7785,-0.889 2.2225,-0.889 3.4925,-2.0955 1.27,-1.27 1.778,-2.54 0.508,-1.27 0.5715,-2.032 -0.0635,-1.27 -1.2065,-2.413 -1.0795,-1.2065 -2.9845,-2.286 -1.8415,-1.143 -4.318,-2.286 -2.4765,-1.143 -5.1435,-2.286 -4.0005,-1.778 -6.9215,-3.302 -2.8575,-1.5875 -4.7625,-3.175 -1.8415,-1.651 -2.7305,-3.429 -0.8255,-1.778 -0.8255,-4.064 0,-3.556 2.159,-6.731 2.159,-3.175 6.223,-4.826 2.032,-0.889 4.318,-1.27 2.3495,-0.381 4.572,-0.381 4.191,0 8.1915,1.143 4.0005,1.143 8.001,2.921 z" />
      <path
         id="path1099"
         style="font-size:63.5px;fill:#a0892c;stroke-width:0.765;fill-opacity:1;stroke:#000000;stroke-opacity:1;stroke-miterlimit:4;stroke-dasharray:none"
         d="m 94.652453,35.036112 q 0,3.048 -1.397,5.7785 -1.3335,2.667 -3.7465,4.826 -2.413,2.0955 -5.6515,3.556 -3.2385,1.4605 -7.0485,1.9685 0.9525,2.8575 2.286,5.9055 1.397,2.9845 2.9845,5.7785 1.5875,2.794 3.302,5.1435 1.7145,2.3495 3.3655,3.8735 -0.3175,0.635 -0.9525,1.27 -0.5715,0.635 -1.397,1.143 -0.762,0.5715 -1.651,0.889 -0.8255,0.381 -1.5875,0.381 -1.397,0 -2.667,-1.3335 -1.27,-1.3335 -2.6035,-4.191 -1.27,-2.921 -2.7305,-7.493 -1.397,-4.6355 -3.1115,-11.1125 -0.6985,0 -1.397,0 -0.6985,0 -1.0795,-0.127 -0.4445,-0.254 -0.9525,-0.889 -1.7145,3.683 -3.048,6.9215 -1.3335,3.2385 -2.413,6.2865 -1.016,2.9845 -1.8415,5.842 -0.762,2.794 -1.3335,5.715 -2.159,-0.508 -3.7465,-1.8415 -1.5875,-1.3335 -2.9845,-3.7465 0.254,-0.5715 0.508,-1.0795 0.3175,-0.5715 0.762,-1.524 0.4445,-1.016 1.0795,-2.54 0.6985,-1.524 1.778,-4.064 1.143,-2.54 2.667,-6.223 1.5875,-3.683 3.81,-8.9535 1.016,-2.3495 1.7145,-4.1275 0.762,-1.778 1.3335,-3.3655 0.5715,-1.651 1.016,-3.2385 0.508,-1.651 1.016,-3.7465 -2.921,1.016 -5.461,2.286 -2.4765,1.2065 -4.1275,2.6035 -0.5715,-0.381 -1.2065,-1.143 -0.5715,-0.762 -1.0795,-1.651 -0.508,-0.9525 -0.889,-1.905 -0.381,-0.9525 -0.4445,-1.7145 1.905,-1.27 4.6355,-2.3495 2.794,-1.0795 5.9055,-1.8415 3.1115,-0.8255 6.35,-1.27 3.2385,-0.4445 6.0325,-0.4445 7.62,0 11.811,3.175 4.191,3.1115 4.191,8.5725 z m -15.494,-5.334 q -0.4445,0.5715 -1.397,2.286 -0.9525,1.7145 -2.2225,4.1275 -1.2065,2.3495 -2.6035,5.1435 -1.3335,2.794 -2.6035,5.5245 4.7625,0 8.763,-0.889 4.0005,-0.889 6.9215,-2.4765 2.921,-1.651 4.5085,-3.81 1.651,-2.2225 1.651,-4.8895 0,-3.175 -2.286,-4.826 -2.286,-1.7145 -7.0485,-1.7145 -1.0795,0 -2.159,0.127 -1.0795,0.0635 -2.286,0.1905 z" />
    </g>
  </g>
</svg>
