<svg xmlns="http://www.w3.org/2000/svg" viewBox="0 0 604.65 112.17"><defs><style>.cls-1{fill:#fff;}</style></defs><g id="Layer_2" data-name="Layer 2"><g id="Layer_1-2" data-name="Layer 1"><path class="cls-1" d="M67.34,10.44a5.48,5.48,0,0,1,0,2.87c-.64,2.36-2.36,4.49-3.8,6.43a65,65,0,0,1-5.18,6.06c-2.06,2.14-5.33,6.57-8.72,6.3-2-.15-.38-2.31.19-3.12,3.59-5.1,7.81-9.5,9.63-15.68.51-1.71.9-3.87-.17-5.46C57.77,5.52,54.38,6,52.05,6.51a28.2,28.2,0,0,0-10.54,5.05l1.47-1a35.78,35.78,0,0,0-8.47,9.31,17.82,17.82,0,0,0-2.07,5.64c-.85,4.67.18,9.47,1.46,14a63.11,63.11,0,0,0,7,16.05c2.56,4.11,4.55,8.68,4.45,13.62a26.78,26.78,0,0,1-4.26,13.53,28.26,28.26,0,0,1-7.6,8.11c-6.89,4.86-16.67,6.86-24.74,4-3.5-1.21-6.49-3.44-7.87-7a16.78,16.78,0,0,1-.37-9.75,28.58,28.58,0,0,1,8.18-14c1.17-1.16,3.69-3.81,5.61-2.91,2.61,1.22-.53,5.58-1.35,7-2.92,5.18-7.31,20.07,1.88,21.67,8,1.4,17.28-6.38,19.49-13.71,1.4-4.66.13-9.51-1.46-13.94-1.77-5-3.84-9.79-6-14.6s-4.3-9.85-5.37-15.11a25.09,25.09,0,0,1,7-22.74,40.1,40.1,0,0,1,6-4.86c5.74-3.85,12.66-6,19.52-4.36a27.15,27.15,0,0,1,8.26,3.24A12.26,12.26,0,0,1,67.34,10.44Z"/><path class="cls-1" d="M133.16,67.65A25.58,25.58,0,0,1,119,78.43c-.64.21-3,.11-3.52.64s-.75,4.05-.86,4.91c-.32,1.49-.64,3-1.06,4.48-1.71,6-3.1,12.91-6.51,18.13-3,4.59-8.22,7.69-13.23,3.85-4.38-3.31-4.38-10.57-4.06-15.47.65-12,5.34-22.84,8.54-34,3-10.56,7.89-20.48,13-30.3a143.31,143.31,0,0,1,9.38-16.11c2.56-3.62,6.73-10.67,11.63-11.2,9.71-1.07,6.62,13.55,4.59,18.46A121.69,121.69,0,0,1,121.1,48c-3.73,4.8-7.68,9.5-11.73,14.19-1.28,1.39-2.57,2.88-4,4.27a8,8,0,0,0-1.92,3.2c-.54,1.6-1.07,3.09-1.5,4.59-2,5.87-3.84,11.73-5.33,17.81-.64,2.76-1.58,5.45-2,8.25a10.78,10.78,0,0,0,.14,5,3.68,3.68,0,0,0,1.3,1.82c1.39,1,2.9.23,4-.78,2.89-2.63,4.73-6.6,6.27-10.12.17-.39.34-.78.49-1.17a69.89,69.89,0,0,0,4.38-13.87,11.42,11.42,0,0,0,.53-3.73c-.21-1.28-1.28-2.56-1.49-3.84a17.93,17.93,0,0,1,0-7.58c.64-2.45,2.66-4.48,4.48-1.49a13.92,13.92,0,0,1,1.06,4.16c.11,1.07-.32,3.31.11,4.27.64,1.49,3.2.64,4.48,0,5.12-2,9.18-6.62,12.7-10.67.53-.64,5-7.58,5.86-4.91v.11C140,61.25,134.86,65,133.16,67.65Zm-25.29-9.71a159.27,159.27,0,0,0,18-24.32c1.5-2.45,11.74-22.83,7.68-24-1.38-.42-2.66,1.71-3.41,2.67-2.88,3.74-5,8-7.26,12.16-4.48,8.43-8.32,17.29-12,26.14.11-.1,0,.32-.64,1.71v-.11c0,.11-.11.22-.11.32Zm3-7.36-.32.86A9.06,9.06,0,0,0,110.86,50.58Z"/><path class="cls-1" d="M156.74,63.28c-1.82,2.67-3.52,5.23-5.55,7.79-2.14,2.88-4.8,7.47-8.54,8.32-3.45.79-6.25-2.06-8.1-4.59-1.18-1.6-2.67-3-3.1-4.91-.37-1.66.22-3.49.49-5.14a45.11,45.11,0,0,1,2-8.51c.85-2.24,1.28-4.8,3.41-6.08,1.6-1.07,3.63-.86,5.65,0a7.23,7.23,0,0,1,3,1.8c.85,1.12-.93,3.45-1.52,4.4A42.56,42.56,0,0,0,141.77,61c-.78,1.7-1.34,3.49-2,5.24-.58,1.59-2.36,6-.12,7.1s5.22-2.26,6.61-3.51a52,52,0,0,0,7.37-8.91,14.1,14.1,0,0,1,3.19-3.8c.75-.53,2.24-1,2.46.43C159.72,59.54,157.8,61.89,156.74,63.28ZM138.6,69.36l-.21.85.21-.64v-.1C138.71,69.25,138.71,69.25,138.6,69.36Zm4-26a1.44,1.44,0,0,1-1-1.66c.22-1.05.44-2.11.76-3.13.81-2.61,1.71-5.19,2.65-7.75.4-1.09.87-2.93,1.48-3A5.52,5.52,0,0,1,150.49,29c.77.67,1.34,2.69.89,3.42-2.2,3.59-4.7,7-7.12,10.44a1.43,1.43,0,0,1-1.64.53Z"/><path class="cls-1" d="M225.16,54.83a66.47,66.47,0,0,1-6.82,4.45c-1.51.85-14.26,7.35-15,6.12l5.13,8.79-3.24-5.85c6,9.29,12.11,18.66,20,26.39,3.54,3.45,8.27,6.74,13,5.46,2.73-.74,4.84-2.85,6.81-4.88,1.68,1.4.35,4.1-1.06,5.78a34.76,34.76,0,0,1-6.86,6.74,13,13,0,0,1-9.1,2.47c-4-.61-7.21-3.59-9.88-6.65C209.32,93.44,203.34,81,198.34,68.42a81.55,81.55,0,0,0-5.32,15c-.51,2.39-.83,4.89-2.07,7s-3.78,3.69-6.11,3a5.37,5.37,0,0,1-3.33-4.45,15.43,15.43,0,0,1,.61-5.79,327.08,327.08,0,0,1,12.43-40.47q3.82-10,8.36-19.67,2.28-4.83,4.74-9.58c1.29-2.47,2.75-7,4.87-8.82a3.62,3.62,0,0,1,4.76.43,5.88,5.88,0,0,1,1.25,5.13,18.49,18.49,0,0,1-2.05,5.06,215.47,215.47,0,0,0-14.07,33.7c8-14.83,18-28.73,30.17-40.37,2.19-2.09,4.79-4.23,7.8-4.08a8,8,0,0,1,4.73,2.12A12.89,12.89,0,0,1,249.37,14c.66,3.71-.33,7.52-1.63,11.06a65,65,0,0,1-17,25.2A67.68,67.68,0,0,1,225.16,54.83Zm13-38.6a8.48,8.48,0,0,0-.12-2.07c-.13-.73-.51-1.56-1.24-1.69a2,2,0,0,0-1.17.26c-2,1-3.14,2.47-4.65,4s-3.11,3.24-4.61,4.91c-3,3.34-5.83,6.83-8.5,10.43a145,145,0,0,0-13.91,23c-.62,1.29-1.23,2.6-1.81,3.91.16-.38,2.35-.93,2.8-1.12,1-.42,1.9-.86,2.84-1.33a57.64,57.64,0,0,0,5.45-3.12A58.2,58.2,0,0,0,223,45.5c6.17-6.29,10.23-14.34,13.42-22.51.39-1,.75-2,1.06-3.08A17.26,17.26,0,0,0,238.16,16.23Zm-29.36,29c0,.11-.1.11-.1.21A.35.35,0,0,0,208.8,45.25ZM211.26,77c.1.11.1.21.21.21C211.36,77.25,211.36,77.15,211.26,77Z"/><path class="cls-1" d="M279.47,59.52a35.62,35.62,0,0,1-2.9,3.56c-.66.87-1.32,1.73-2,2.59-3,3.84-6.17,7.44-9.12,11.27-4.42,5.73-10.73,16-19.46,11.51-2.34-1.18-4.72-4.15-5.86-5.52-1.88-3-1.26-6.69-.69-10a81.5,81.5,0,0,1,3.08-13.74c2.29-6.42,6.48-14.29,12.72-17.67,5.92-3.21,16.06-.47,14.36,7.74-1.39,6.72-9.36,13.5-15.48,15.88-.88.35-1.86.57-2.72,1-2,.93-2,4.23-2.39,6.06-.64,2.73-2.89,9.67,0,11.72,2.17,1.53,5.79-1.48,7.4-2.77,4.31-3.46,7.61-7.74,11-12.06l1.31-1.65c2.35-2.9,4.59-5.85,6.78-8.88.55-.76,1.44-2.2,2.52-2.28a1.92,1.92,0,0,1,1.77,2.4A3.48,3.48,0,0,1,279.47,59.52ZM251.91,62a32.81,32.81,0,0,0,8-5.83c2.7-2.75,3.53-5.35,4.23-9,.1-1.07-.32-3.84-1.92-3.52a4.82,4.82,0,0,0-1.92,1.71l-1.92,2.56c-2.24,3.3-3.42,6.93-5,10.34a.79.79,0,0,1-.11.32C252.76,59.65,252.44,60.83,251.91,62Z"/><path class="cls-1" d="M285.59,59.1q-.81,2.44-1.48,4.92t-1.17,5c-.32,1.62-.58,3.25-.79,4.89a33.36,33.36,0,0,0-.3,4.89,12.65,12.65,0,0,0,.69,4.27,2.36,2.36,0,0,0,3.21,1.32,15,15,0,0,0,4.05-2.43A26.48,26.48,0,0,0,295.17,77c.53-.7,1-1.42,1.62-2.09,1.14-1.3,2.31-2.57,3.4-3.92s2.19-2.68,3.28-4c.73-.9,1.47-1.81,2.15-2.75l1.1-1.57c.51-.72,1-1.44,1.58-2.14s1.17-1.45,1.82-2.12a9.17,9.17,0,0,1,1.81-1.54,1.91,1.91,0,0,1,1.53-.34,1.47,1.47,0,0,1,.8,1.64,6.64,6.64,0,0,1-1.16,2.67c-.56.85-1.19,1.64-1.82,2.44-.79,1-1.56,2-2.34,3-1.05,1.36-2.09,2.73-3.05,4.15l-.43.63c-.79,1.14-1.6,2.27-2.45,3.36-1,1.31-2.09,2.58-3.19,3.82s-2.27,2.47-3.45,3.66-2.37,2.29-3.6,3.39a44,44,0,0,1-3.6,2.94,19.73,19.73,0,0,1-4,2.25,11.83,11.83,0,0,1-4.43.93,6.66,6.66,0,0,1-4.15-1.24,8.59,8.59,0,0,1-1.5-1.79,18.12,18.12,0,0,1-2.29-4.8c-.09-.29-.17-.59-.25-.88a3.82,3.82,0,0,1-.2-.79c0-.08,0-.15,0-.23a12.93,12.93,0,0,1-.2-2.23c-.11-3.06.38-6.06.57-9.1a28.69,28.69,0,0,1,.54-4.42c.25-1.14.62-2.25.94-3.37.38-1.34.87-2.65,1.37-4,.63-1.56,1.39-3.08,2.14-4.59s1.47-3,2.21-4.55l0,0c.33-.65.65-1.31,1-2a25.66,25.66,0,0,1,2.48-4,21.39,21.39,0,0,1,6-5.57c2.24-1.3,5.22-1.75,7.5-.27,1.78,1.16,2.58,3.38,3.27,5.28a11.93,11.93,0,0,1,.53,5.44,17.49,17.49,0,0,1-.48,2.88,5,5,0,0,1-1,2.1,6.07,6.07,0,0,1-3.83,2,2.25,2.25,0,0,1-1.92-.73,1.2,1.2,0,0,1,0-1.19c.15-.44.27-.87.4-1.31.31-1.08.63-2.15,1-3.21a11.79,11.79,0,0,0,.66-5.82c-.12-.75-.46-1.87-1.44-1.59a3.69,3.69,0,0,0-1.76,1.41,16.18,16.18,0,0,0-1.68,3q-1.87,3.82-3.36,7.81l-.36,1"/><path class="cls-1" d="M345,62.26q-.78.14-1.56.33a3.61,3.61,0,0,0-1.93,1.8c-.65,1-1.22,2-1.85,3.06a42.65,42.65,0,0,1-4.46,5.81A57.76,57.76,0,0,1,330,78.33a27.19,27.19,0,0,1-5.74,4.1,10.69,10.69,0,0,1-6.39,1,12.58,12.58,0,0,1-5.94-2.63,14.93,14.93,0,0,1-4-5,14.06,14.06,0,0,1-1.5-6.71,16.28,16.28,0,0,1,2.05-6.57c1.06-2.1,2-4.26,3.17-6.3a23,23,0,0,1,4.2-5.47,17,17,0,0,1,5.65-3.8,14.41,14.41,0,0,0,2.52-.77c.88-.53,1.13-1.79,1.44-2.69a18.82,18.82,0,0,1,3.52-6,11.54,11.54,0,0,1,5.12-4,8,8,0,0,1,6.38,1.16c3,1.81,5.69,4.56,6.34,8.14a10.45,10.45,0,0,1,.14,1.36,33.31,33.31,0,0,1-1.47,9.54c-.23.89-.46,1.78-.73,2.65A8.9,8.9,0,0,0,344,59a4.31,4.31,0,0,0,1.7-.24l1.87-.4,3.76-.8c.61-.13,1.22-.23,1.82-.38a6.33,6.33,0,0,1,1.69-.46c.83.06,1.24,1.21,1.09,1.92-.19.89-1.12,1.42-1.88,1.78a14.72,14.72,0,0,1-3.39,1C348.77,61.78,346.85,61.92,345,62.26Zm-10,.27c-4.69-.64-10.45-2.67-11.63-8a41.84,41.84,0,0,0-3.84,6.62s-9.81,18.88-1,17.6h.11C326.06,77.36,331.82,68.72,334.91,62.53Zm5.12-24c-2-3.47-6.13,1.65-7.37,3.33a24.23,24.23,0,0,0-4.47,11.6c-.21,1.82-.42,3.85,1.07,5.12a6.16,6.16,0,0,0,3.41,1.07,7.5,7.5,0,0,0,2.67.11c1.07-.22.75.1,1.28-1,1.6-2.67,2.24-6.62,3-9.6C340.14,46.53,341.63,41.3,340,38.53Z"/><path class="cls-1" d="M391.88,79.24a.94.94,0,0,0,.38.11,1.1,1.1,0,0,0,.63-.18,11.41,11.41,0,0,0,2.84-2.75c1.48-1.7,2.85-3.49,4.31-5.2,2.95-3.47,5.73-7.07,8.65-10.57a11.37,11.37,0,0,1,2.6-2.67c1.4-.85,2.1.43,1.89,1.75A12,12,0,0,1,411,64.5c-.48.69-1,1.38-1.48,2.06-.82,1.11-1.65,2.2-2.46,3.31-3.45,4.72-13.09,21.82-20.48,13.46a14.12,14.12,0,0,1-3.41-7.1c-.71-4.37.27-8.77,1.67-12.91a127,127,0,0,1,4.84-12.21,23.9,23.9,0,0,1,1.17-2.75c-2.19,1.56-3.45,4.16-4.94,6.32C382.44,59.68,379.44,65,376,70c-1.19,1.74-3.42,4.16-5.64,2.5s-2.37-4.45-2-6.85a43.24,43.24,0,0,1,2.77-8.73c1.15-2.94,2.51-5.8,3.63-8.75A12.3,12.3,0,0,0,376,44c0-1.46-1.22-.73-1.77,0-.9,1.17-1.66,2.46-2.51,3.67s-1.83,2.66-2.7,4q-2.59,4-4.86,8.16c-1.53,2.8-3,5.66-4.25,8.57-.64,1.46-1.24,2.93-1.83,4.41s-1,2.83-1.63,4.15c-1.41,2.85-4.5,1-6.1-.71-1.83-1.91-2.26-4.34-2.25-6.9a32.63,32.63,0,0,1,1.33-9.22,75.69,75.69,0,0,1,3.45-8.58,41.75,41.75,0,0,1,1.68-4c.47-.84,1.23-1.62,2.26-1.27,1.61.54,2.84,2.74,3.62,4.14,1.54,2.76-.68,5.07-2.08,7.35-1.52,2.47-3.06,5.16-3.4,8.1a4.94,4.94,0,0,0,.75,3.65,3.58,3.58,0,0,1,.82-2.42c.59-1,1.13-2,1.63-3,1.18-2.39,2.19-4.86,3.42-7.23,2.48-4.78,5.61-9.19,8.54-13.7,1.92-3,4.92-6.91,8.95-5.31,3.55,1.41,3.85,6,2.9,9.11-.75,2.51-1.89,4.89-2.85,7.32s-2,5.08-2.71,7.69a6.75,6.75,0,0,0-.38,1.93c.45-1,1.19-2,1.74-2.95s1.19-2.11,1.8-3.15c1.21-2.06,2.52-4.06,3.88-6,2.19-3.15,4.54-6.59,8.15-8.23,2.23-1,5-1,6.64,1.07,1.43,1.79,1.36,4.24,1,6.36a37.19,37.19,0,0,1-1.21,4.4,86.27,86.27,0,0,1-3.24,8.35c-1.85,4.24-4.24,8.07-3.86,12.88C391,77.26,391.09,78.8,391.88,79.24Z"/><path class="cls-1" d="M497.88,69c-.27.32-.54.66-.8,1-2.26,2.91-4.41,5.88-6.9,8.59-1.78,1.93-4.35,4.54-7.26,3.83a6.7,6.7,0,0,1-2.25-1.16c-.78-.55-1.59-1.07-2.35-1.65a7.78,7.78,0,0,1-2.72-3.87c-1.13-3.6-.18-7.58.77-11.12s2.83-7,4.42-10.38a10.32,10.32,0,0,1,1.29-2.26c-2.34,2.66-4.29,5.64-6.43,8.45S471.22,66,469.34,69c-.94,1.52-1.74,3.11-2.72,4.6A3.31,3.31,0,0,1,465,75.05a3.39,3.39,0,0,1-2.41-.33,7.11,7.11,0,0,1-3.47-2.63c-.82-1.38-.58-3.06-.38-4.57A57.8,57.8,0,0,1,461.3,57c1.16-3.43,2.53-6.79,3.42-10.3a10.32,10.32,0,0,1,1.67-4.26,4.71,4.71,0,0,1,3.86-1.5,5.63,5.63,0,0,1,4,1.57,2.74,2.74,0,0,1,.78,2,4.67,4.67,0,0,1-1,2.12,35.77,35.77,0,0,0-5,8.73,84.8,84.8,0,0,0-2.37,10.47c-.17.85-.36,1.7-.61,2.54.58-1,1.36-1.94,2-2.92s1.41-2.16,2.13-3.24c1.42-2.13,3-4.17,4.43-6.26s2.94-4.24,4.51-6.29a30.24,30.24,0,0,1,4.76-5.28c1.61-1.32,3.92-2.34,5.91-1.2a6.3,6.3,0,0,1,2.76,5.65A9.88,9.88,0,0,1,490,54.55c-3.82,4.84-8.31,9.57-10,15.71-.49,1.84-.65,5.3,2,5.62,1.81.22,3.69-1.95,4.92-3,3-2.58,6-5.19,9-7.81A38.52,38.52,0,0,0,500.13,61c.39-.46.87-1.26,1.55-1.28s1,.77,1.06,1.36c.16,1.74-1,3.34-2.08,4.61C499.75,66.77,498.79,67.84,497.88,69Z"/><path class="cls-1" d="M553.23,64.26c-.54.51-1.07,1-1.58,1.58-1.28,1.41-2.47,2.89-3.68,4.35a115.72,115.72,0,0,0-7,9.46c-2.19,3.27-4.37,6.54-6.8,9.65-2.09,2.68-4.35,5.7-7.51,7.17a5.54,5.54,0,0,1-5.13,0,8.8,8.8,0,0,1-3.41-3.64c-1.74-3.3-1.85-7.22-1.64-10.86,0-.93.13-1.84.27-2.76a8.85,8.85,0,0,0,.18-2.71,17,17,0,0,0-3,2.84c-1.06,1-2.18,2-3.31,3a33.32,33.32,0,0,1-6.64,4.8,6.83,6.83,0,0,1-7.16-.49,9,9,0,0,1-3.37-6.13c-1.31-8.31,2.54-17.59,7-24.44a21.86,21.86,0,0,1,5.29-5.88,9.45,9.45,0,0,1,3.61-1.77,6.6,6.6,0,0,1,4,.62,19.22,19.22,0,0,1,6,5.07,12.39,12.39,0,0,0,1.36,1.53,29.5,29.5,0,0,1,.88-3l1-3.25c.66-2.12,1.35-4.23,2.17-6.3,1.64-4.18,3.27-8.37,5.14-12.45.93-2,1.94-4.05,2.87-6.09a57,57,0,0,1,2.76-5.67,23.64,23.64,0,0,1,7.72-8.33c3.13-1.91,7.23-2.58,10.59-.87s4,5.42,3.67,8.74c0,.15,0,.29-.06.44-.53,3.66-2.22,7-4,10.22a113.89,113.89,0,0,1-6.25,10c-1.89,2.7-4.07,5.18-6,7.85-1.2,1.67-2.37,3.37-3.63,5-1.44,1.88-2.91,3.72-4.37,5.58a44.33,44.33,0,0,0-3,4.17,16.22,16.22,0,0,0-1.9,5.09c-.4,1.89-.61,3.83-.88,5.75s-.63,3.91-.94,5.87-.53,4-.64,5.95c-.1,1.79-.25,3.8.5,5.48,1.18,2.64,3.41-.38,4.36-1.59s2.17-2.62,3.21-4c1.21-1.56,2.37-3.15,3.53-4.75,2.34-3.25,4.64-6.53,7-9.73a111.51,111.51,0,0,1,7.41-9.08c1.27-1.37,2.61-3.16,4.36-3.91A1.2,1.2,0,0,1,558,57.71c.24,1.71-1.23,3.27-2.37,4.33C554.86,62.79,554,63.51,553.23,64.26ZM519,64.39a10.9,10.9,0,0,0-.45-6.52c-.85-1.79-2.8-3.72-4.93-3.65-3.58.13-5.42,4-6.51,6.89-1.52,4-2.77,8.15-4,12.22-.67,2.26-2.66,6.76-.94,8.94a2.29,2.29,0,0,0,2.7.37,8.47,8.47,0,0,0,2.75-2.12c.91-.92,1.88-1.77,2.82-2.66,1.43-1.36,2.82-2.77,4.25-4.13a12.42,12.42,0,0,0,3-3.82,20.47,20.47,0,0,0,1.15-4.64C518.91,65,519,64.69,519,64.39Zm16.78-24c-1.72,5-3.31,10.08-5.15,15.07a5.93,5.93,0,0,0-.37,1.15l.42-.42.75-1c2.24-2.87,4.69-5.65,6.69-8.68C542.48,40,547.37,33.2,550.6,26c1-2.34,4-10.12.79-11.89-2.45-1.39-5.23,3.52-6.19,5.12C541.06,25.88,538.3,33.11,535.79,40.44Zm-.3.54a5.43,5.43,0,0,1-.1.54l.43-1.07Z"/><path class="cls-1" d="M601.84,65.19c-1.52,2.41-3.11,4.79-4.52,7.28a83.92,83.92,0,0,1-4.88,8c-.63.89-1.29,1.75-2,2.59-1.92,2.45-4.59,5.54-7.79,6.08-3.62.64-6.5-2.35-7.68-5.55a20.14,20.14,0,0,1-1.15-9.07,81.79,81.79,0,0,1,2.39-11.56c-1.14,1.66-2.39,3.25-3.48,5-1.28,2-2.24,4-3.63,6-2.26,3.14-4.84,6.34-8.28,8.3-4,2.28-8.7,1.18-10.07-3.6a21,21,0,0,1-.1-9.29,46.45,46.45,0,0,1,5.45-15.66c2.5-4.17,7.73-10.37,13.11-10.37s7.36,6,8.43,10c2.56-3.31,7.15-7.68,11.09-2.88,2.14,2.56.75,4.48-.42,6.83a49.08,49.08,0,0,0-4.48,12.16c.1-.32-6,21.87,5,8.32,3.31-4.16,6.19-8.53,9.07-12.91,1.28-2,2.56-4.16,4-6.19,1.12-1.49,3-2.32,2.77.21a11.93,11.93,0,0,1-2,5.22ZM574,54.46a18.89,18.89,0,0,0-1.07-4.85A2.44,2.44,0,0,0,571.84,48a1.9,1.9,0,0,0-1.31,0,7.22,7.22,0,0,0-3.67,3.31c-1,1.76-2,3.59-2.84,5.44a69.51,69.51,0,0,0-4.17,11.38,23,23,0,0,0-1,6.2c0,.87.26,1.94,1.1,2.16a1.75,1.75,0,0,0,1.42-.43A7.94,7.94,0,0,0,563.11,74q2.79-4.2,5.85-8.23c2.19-2.88,4.58-5.9,5-9.5A11.1,11.1,0,0,0,574,54.46Z"/><path class="cls-1" d="M430.43,62.89c-1.81,2.67-3.52,5.23-5.55,7.79-2.13,2.88-4.8,7.47-8.53,8.32-3.46.79-6.26-2.06-8.11-4.58-1.18-1.61-2.67-3-3.1-4.91-.37-1.67.22-3.5.5-5.15a45.09,45.09,0,0,1,2-8.51c.85-2.24,1.28-4.8,3.41-6.08,1.6-1.07,3.63-.85,5.65,0a7.23,7.23,0,0,1,3,1.8c.86,1.12-.93,3.46-1.51,4.4a42,42,0,0,0-2.73,4.61c-.78,1.7-1.34,3.49-2,5.25-.57,1.58-2.35,6-.12,7.09s5.23-2.26,6.62-3.51a52.45,52.45,0,0,0,7.36-8.91,14,14,0,0,1,3.2-3.8c.74-.53,2.24-1,2.45.43C433.42,59.16,431.5,61.51,430.43,62.89ZM416.31,43a1.45,1.45,0,0,1-.95-1.66c.22-1.06.44-2.12.76-3.14.81-2.61,1.72-5.19,2.65-7.75.4-1.09.88-2.92,1.48-3a5.53,5.53,0,0,1,3.94,1.14c.76.67,1.33,2.69.88,3.43-2.2,3.58-4.69,7-7.12,10.43a1.45,1.45,0,0,1-1.64.54Z"/><path class="cls-1" d="M466.17,59.3a35.62,35.62,0,0,1-2.9,3.56c-.66.87-1.32,1.73-2,2.59-3,3.84-6.17,7.44-9.13,11.27-4.42,5.73-10.72,16-19.46,11.51-2.33-1.19-4.71-4.15-5.85-5.52-1.88-3-1.26-6.69-.7-10A81.53,81.53,0,0,1,429.23,59c2.29-6.42,6.48-14.29,12.72-17.67,5.92-3.21,16.06-.47,14.36,7.74C454.92,55.79,447,62.57,440.83,65c-.89.35-1.87.57-2.73,1-1.63.77-2.15,3.29-2.41,4.81-.65,3.67-1.46,7-1,10.81.65,5.15,6.3,1.1,8.42-.61,4.31-3.46,7.62-7.74,11-12.06l1.31-1.65c2.35-2.9,4.59-5.85,6.77-8.88.56-.76,1.44-2.2,2.52-2.28a1.92,1.92,0,0,1,1.78,2.4A3.48,3.48,0,0,1,466.17,59.3ZM438.6,61.78a32.86,32.86,0,0,0,8-5.83c2.69-2.75,3.53-5.35,4.22-9,.11-1.07-.32-3.84-1.92-3.52A5,5,0,0,0,447,45.14l-1.92,2.56c-2.24,3.3-3.41,6.93-5,10.34a.79.79,0,0,1-.11.32C439.46,59.43,439.14,60.61,438.6,61.78Z"/><path class="cls-1" d="M91.73,62.3q-.78.14-1.56.33a3.63,3.63,0,0,0-1.93,1.79c-.65,1-1.22,2-1.86,3.07a41.79,41.79,0,0,1-4.45,5.81,59.14,59.14,0,0,1-5.19,5.07A27.55,27.55,0,0,1,71,82.47a10.69,10.69,0,0,1-6.39,1,12.5,12.5,0,0,1-5.94-2.64,14.8,14.8,0,0,1-4-5,14.1,14.1,0,0,1-1.5-6.72,16.24,16.24,0,0,1,2-6.56c1.06-2.1,2-4.26,3.17-6.31a23.19,23.19,0,0,1,4.2-5.46A16.86,16.86,0,0,1,68.27,47a15.31,15.31,0,0,0,2.52-.77c.88-.53,1.13-1.79,1.44-2.7a18.93,18.93,0,0,1,3.52-6,11.61,11.61,0,0,1,5.12-4,8,8,0,0,1,6.38,1.17c3,1.81,5.69,4.56,6.33,8.14a8.84,8.84,0,0,1,.15,1.36,33.19,33.19,0,0,1-1.47,9.53c-.23.89-.46,1.78-.73,2.66A8.9,8.9,0,0,0,90.79,59a4.49,4.49,0,0,0,1.7-.24c.62-.15,1.25-.28,1.87-.41l3.76-.79c.61-.13,1.22-.23,1.82-.38a5.67,5.67,0,0,1,1.69-.46c.83.06,1.24,1.2,1.09,1.92-.19.89-1.12,1.42-1.88,1.78a15.2,15.2,0,0,1-3.39,1C95.55,61.82,93.63,62,91.73,62.3Zm-10,.27c-4.69-.64-10.45-2.67-11.63-8a42.08,42.08,0,0,0-3.84,6.61s-9.81,18.89-1,17.61h.11C72.84,77.4,78.6,68.76,81.69,62.57Zm5.12-24c-1-1.62-2.72-1.18-4.06-.2a16,16,0,0,0-4.81,5.49,25.51,25.51,0,0,0-1.8,4.78A32.87,32.87,0,0,0,75,53.5c-.21,1.81-.43,3.84,1.07,5.12a6.16,6.16,0,0,0,3.41,1.07,7.5,7.5,0,0,0,2.67.11c1.07-.22.75.1,1.28-1,1.6-2.66,2.24-6.61,3-9.6C86.92,46.57,88.41,41.34,86.81,38.56Z"/></g></g></svg>