<?xml version="1.0" encoding="UTF-8" standalone="no"?>
<svg
   xmlns:dc="http://purl.org/dc/elements/1.1/"
   xmlns:cc="http://creativecommons.org/ns#"
   xmlns:rdf="http://www.w3.org/1999/02/22-rdf-syntax-ns#"
   xmlns:svg="http://www.w3.org/2000/svg"
   xmlns="http://www.w3.org/2000/svg"
   xmlns:sodipodi="http://sodipodi.sourceforge.net/DTD/sodipodi-0.dtd"
   xmlns:inkscape="http://www.inkscape.org/namespaces/inkscape"
   viewBox="0 0 228.66 39.08"
   version="1.1"
   id="svg32"
   sodipodi:docname="navbar-logo.svg"
   inkscape:export-filename="Z:\Sofirecomienda\assets\img\navbar-logo.png"
   inkscape:export-xdpi="96"
   inkscape:export-ydpi="96"
   inkscape:version="1.0 (4035a4fb49, 2020-05-01)">
  <metadata
     id="metadata38">
    <rdf:RDF>
      <cc:Work
         rdf:about="">
        <dc:format>image/svg+xml</dc:format>
        <dc:type
           rdf:resource="http://purl.org/dc/dcmitype/StillImage" />
        <dc:title />
      </cc:Work>
    </rdf:RDF>
  </metadata>
  <defs
     id="defs36" />
  <sodipodi:namedview
     inkscape:document-rotation="0"
     pagecolor="#ffffff"
     bordercolor="#666666"
     borderopacity="1"
     objecttolerance="10"
     gridtolerance="10"
     guidetolerance="10"
     inkscape:pageopacity="0"
     inkscape:pageshadow="2"
     inkscape:window-width="1918"
     inkscape:window-height="917"
     id="namedview34"
     showgrid="false"
     inkscape:zoom="4.4563981"
     inkscape:cx="137.25261"
     inkscape:cy="-0.65499243"
     inkscape:window-x="-8"
     inkscape:window-y="-8"
     inkscape:window-maximized="1"
     inkscape:current-layer="a887" />
  <style
     id="style2">.cls-1{fill:#fed136;}</style>
  <a
     id="a887">
    <g
       transform="matrix(0.93232333,0,0,0.93232333,7.5725506,1.1181066)"
       aria-label="Sofi Recomienda"
       id="text42"
       style="font-style:normal;font-variant:normal;font-weight:normal;font-stretch:normal;font-size:33.2125px;line-height:1.25;font-family:'Kaushan Script';-inkscape-font-specification:'Kaushan Script, Normal';font-variant-ligatures:normal;font-variant-caps:normal;font-variant-numeric:normal;font-variant-east-asian:normal;fill:#fed136;fill-opacity:1;stroke:none;stroke-width:0.889621">
      <path
         d="m 27.444783,5.1570942 q 0.09964,0.5646125 0.13285,0.7971001 0.06643,0.199275 0.06643,0.5646125 0,1.0960125 -0.498188,2.0591751 -0.464975,0.92995 -1.295287,1.3285 -0.66425,-0.8967375 -1.627413,-1.527775 -0.963162,-0.6642501 -2.1256,-1.0628001 -1.129225,-0.4317625 -2.358088,-0.6310375 -1.228862,-0.199275 -2.3913,-0.199275 -1.162437,0 -2.192025,0.199275 -0.996375,0.1660625 -1.793475,0.4981875 -0.763887,0.2989125 -1.228862,0.7638876 -0.431763,0.464975 -0.431763,1.0628 0.09964,0.730675 0.896738,1.4945626 0.7971,0.730675 1.959537,1.46135 1.162438,0.697463 2.557363,1.394925 1.428137,0.697463 2.78985,1.3285 1.693837,0.7971 2.9227,1.494563 1.228863,0.66425 2.025963,1.494562 0.7971,0.7971 1.19565,1.826688 0.39855,1.029587 0.39855,2.490937 0,1.693838 -0.564613,3.188401 -0.564612,1.46135 -1.660625,2.557362 -1.0628,1.096013 -2.590575,1.693838 -1.527775,0.631037 -3.420888,0.631037 -1.8599,0 -4.018712,-0.564612 Q 12.034182,28.937245 10.141069,27.94087 8.2811693,26.977708 7.0190943,25.715633 5.7902317,24.420345 5.7902317,22.992208 q 0,-0.66425 0.3653376,-1.693838 0.39855,-1.029588 1.394925,-2.158813 0.099637,0.996375 1.0628001,2.358088 0.996375,1.361713 2.9559126,2.52415 1.826688,1.0628 3.753013,1.560988 1.959537,0.464975 3.653375,0.464975 1.8599,0 3.022337,-0.464975 1.162438,-0.464975 1.826688,-1.096013 0.66425,-0.66425 0.92995,-1.3285 0.2657,-0.66425 0.298913,-1.0628 -0.03321,-0.66425 -0.631038,-1.262075 -0.564612,-0.631038 -1.560987,-1.19565 -0.963163,-0.597825 -2.258451,-1.19565 -1.295287,-0.597825 -2.690212,-1.19565 -2.092388,-0.92995 -3.620163,-1.72705 Q 12.79807,14.689082 11.801695,13.85877 10.838532,12.995245 10.373557,12.065295 9.9417944,11.135344 9.9417944,9.9396944 q 0,-1.8599 1.1292246,-3.5205251 1.129226,-1.6606251 3.254826,-2.5241501 1.0628,-0.4649751 2.25845,-0.6642501 1.228862,-0.199275 2.3913,-0.199275 2.192025,0 4.284413,0.5978251 2.092387,0.597825 4.184775,1.527775 z"
         style="font-style:normal;font-variant:normal;font-weight:normal;font-stretch:normal;font-size:33.2125px;font-family:'Kaushan Script';-inkscape-font-specification:'Kaushan Script, Normal';font-variant-ligatures:normal;font-variant-caps:normal;font-variant-numeric:normal;font-variant-east-asian:normal;fill:#fed136;fill-opacity:1;stroke-width:0.889621"
         id="path891" />
      <path
         d="m 32.669524,28.704758 q -1.893113,-0.199275 -3.022338,-1.660625 -1.129225,-1.46135 -1.129225,-3.7198 0,-1.328501 0.39855,-2.756638 0.39855,-1.428138 1.129225,-2.756638 0.730675,-1.361712 1.727051,-2.557362 0.996375,-1.19565 2.158812,-2.059175 1.826688,-1.361713 3.420888,-1.361713 1.0628,0.564613 2.092387,2.358088 0.166063,0 0.298913,0 0.13285,-0.03321 0.298912,-0.03321 1.760263,0 1.760263,3.121975 0,2.092388 -0.697463,3.9855 -0.66425,1.859901 -1.893112,3.387676 -1.19565,1.527775 -2.889488,2.590575 -1.660625,1.029587 -3.653375,1.46135 z M 34.363362,18.24282 q -0.564613,0.763887 -1.0628,1.660625 -0.498188,0.896737 -0.863525,1.826687 -0.365338,0.896738 -0.564613,1.760263 -0.199275,0.830313 -0.199275,1.494563 0,0.7971 0.2657,1.527775 0.2657,0.730675 0.597825,0.830312 1.494563,-0.332125 2.723425,-1.228862 1.262075,-0.92995 2.158813,-2.291663 0.92995,-1.361712 1.428137,-3.088763 0.5314,-1.72705 0.5314,-3.686587 0,-0.863525 -0.09964,-1.361713 -0.09964,-0.498187 -0.332125,-0.863525 -1.46135,0.431763 -2.623788,1.394925 -1.129225,0.963163 -1.959537,2.025963 z"
         style="font-style:normal;font-variant:normal;font-weight:normal;font-stretch:normal;font-size:33.2125px;font-family:'Kaushan Script';-inkscape-font-specification:'Kaushan Script, Normal';font-variant-ligatures:normal;font-variant-caps:normal;font-variant-numeric:normal;font-variant-east-asian:normal;fill:#fed136;fill-opacity:1;stroke-width:0.889621"
         id="path893" />
      <path
         d="m 57.239512,12.962032 q 0.166062,0 0.697462,0.03321 0.564613,0 1.262075,0.03321 0.697463,0 1.394925,0.06643 0.730675,0.06643 1.228863,0.166063 0.332125,0.365337 0.498187,0.697462 -0.763887,0.996375 -1.46135,2.25845 -0.697462,1.262075 -1.295287,2.623788 -0.597825,1.3285 -1.096013,2.657 -0.464975,1.295288 -0.830312,2.424513 -0.332125,1.096012 -0.564613,1.926325 -0.199275,0.830312 -0.232487,1.19565 -0.06642,0.597825 -0.06642,0.830312 0.03321,0.2657 -0.13285,0.2657 -0.13285,0 -0.5314,-0.166062 -0.39855,-0.166063 -0.830313,-0.498188 -0.39855,-0.365337 -0.730675,-0.896737 -0.332125,-0.5314 -0.332125,-1.262075 0,-0.92995 0.2657,-2.324875 0.2657,-1.428138 0.697463,-2.922701 0.431762,-1.494562 0.996375,-2.856275 0.564612,-1.394925 1.162437,-2.25845 -1.0628,-0.06643 -2.1256,-0.09964 -1.0628,-0.06643 -2.1256,-0.06643 -0.365338,0 -0.730675,0 -0.365338,0 -0.730675,0.03321 -1.660625,5.214363 -2.989125,9.100226 -1.295288,3.885862 -2.424513,6.6425 -1.096012,2.78985 -2.1256,4.550113 -0.996375,1.793475 -2.025963,2.78985 -0.996375,1.029587 -2.1256,1.428137 -1.129225,0.39855 -2.490937,0.39855 -2.358088,0 -4.018713,-1.5942 0,-0.232487 0.13285,-0.498187 0.13285,-0.2657 0.298913,-0.365338 0.464975,0.564613 1.228862,0.863525 0.763888,0.332125 1.5942,0.332125 0.863525,0 1.5942,-0.39855 0.697463,-0.365337 1.394925,-1.262075 0.66425,-0.896737 1.3285,-2.358087 0.697463,-1.46135 1.494563,-3.620163 1.162437,-3.1884 2.3913,-7.240325 1.262075,-4.051926 2.557363,-8.568826 -1.262075,0.06642 -2.092388,0.166063 -0.830312,0.09964 -1.096012,0.13285 -0.13285,-0.13285 -0.232488,-0.365338 -0.06643,-0.232487 -0.06643,-0.431762 0.5314,-0.166063 1.494563,-0.365338 0.996375,-0.232487 2.3913,-0.464975 0.7971,-2.3913 1.760262,-4.3176251 0.963163,-1.9595376 2.059175,-3.3212501 1.129225,-1.3617126 2.3913,-2.0923876 1.295288,-0.7306751 2.789851,-0.7306751 0.5314,0 1.162437,0.2324875 0.66425,0.1992751 1.262075,0.4649751 0.631038,0.2324875 1.129225,0.464975 0.498188,0.199275 0.763888,0.199275 0.39855,-0.2324875 1.096012,-0.39855 0.730675,-0.199275 1.228863,-0.199275 0.39855,0 1.029587,0.4317625 -0.298912,0.464975 -0.597825,1.262075 -0.298912,0.7971001 -0.464975,1.5609876 -0.830312,2.4577251 -1.760262,3.1884002 -0.166063,0 -0.298913,-0.199275 -0.09964,-0.232488 -0.09964,-0.7638876 0,-0.3653375 -0.166063,-0.66425 -0.166062,-0.2989125 -0.39855,-0.597825 -0.199275,-0.2989126 -0.365337,-0.5978251 -0.166063,-0.2989125 -0.166063,-0.6310375 0,-0.199275 0.03321,-0.464975 0.03321,-0.2989125 0.13285,-0.9631626 -0.39855,-0.033212 -0.7971,-0.033212 -0.365338,-0.033213 -0.730675,-0.033213 -1.295288,0 -2.324875,0.6310376 -0.996375,0.6310375 -1.793476,1.72705 -0.7971,1.0628001 -1.428137,2.4577252 -0.631038,1.361713 -1.129225,2.856275 1.162437,-0.06643 2.3913,-0.13285 1.262075,-0.06642 2.690213,-0.06642 z"
         style="font-style:normal;font-variant:normal;font-weight:normal;font-stretch:normal;font-size:33.2125px;font-family:'Kaushan Script';-inkscape-font-specification:'Kaushan Script, Normal';font-variant-ligatures:normal;font-variant-caps:normal;font-variant-numeric:normal;font-variant-east-asian:normal;fill:#fed136;fill-opacity:1;stroke-width:0.889621"
         id="path895" />
      <path
         d="m 92.853691,9.2422319 q 0,1.5942001 -0.730675,3.0223381 -0.697463,1.394925 -1.959538,2.52415 -1.262075,1.096012 -2.955912,1.8599 -1.693838,0.763887 -3.686588,1.029587 0.498187,1.494563 1.19565,3.088763 0.730675,1.560988 1.560988,3.022338 0.830312,1.46135 1.72705,2.690212 0.896737,1.228863 1.760262,2.025963 -0.166062,0.332125 -0.498187,0.66425 -0.298913,0.332125 -0.730675,0.597825 -0.39855,0.298912 -0.863525,0.464975 -0.431763,0.199275 -0.830313,0.199275 -0.730675,0 -1.394925,-0.697463 -0.66425,-0.697462 -1.361713,-2.192025 -0.66425,-1.527775 -1.428137,-3.919075 -0.730675,-2.424513 -1.627413,-5.812188 -0.365337,0 -0.730675,0 -0.365337,0 -0.564612,-0.06643 -0.232488,-0.13285 -0.498188,-0.464975 -0.896737,1.926325 -1.5942,3.620163 -0.697462,1.693838 -1.262075,3.288038 -0.5314,1.560987 -0.963162,3.05555 -0.39855,1.46135 -0.697463,2.989125 -1.129225,-0.2657 -1.959538,-0.963163 -0.830312,-0.697462 -1.560987,-1.959537 0.13285,-0.298913 0.2657,-0.564613 0.166062,-0.298912 0.39855,-0.7971 0.232487,-0.5314 0.564612,-1.3285 0.365338,-0.7971 0.929951,-2.1256 0.597825,-1.3285 1.394925,-3.254825 0.830312,-1.926325 1.99275,-4.682963 0.5314,-1.228862 0.896737,-2.158812 0.39855,-0.92995 0.697463,-1.760263 0.298912,-0.8635251 0.5314,-1.6938376 0.2657,-0.863525 0.5314,-1.9595376 -1.527775,0.5314 -2.856275,1.1956501 Q 75.251065,8.8104694 74.38754,9.5411444 74.088628,9.3418694 73.756503,8.9433194 73.45759,8.5447694 73.19189,8.0797944 72.92619,7.5816068 72.726915,7.0834193 72.52764,6.5852318 72.494427,6.1866818 73.490803,5.5224317 74.91894,4.9578192 q 1.46135,-0.5646125 3.088763,-0.9631625 1.627412,-0.4317626 3.32125,-0.6642501 1.693837,-0.2324875 3.155188,-0.2324875 3.9855,0 6.177525,1.6606251 2.192025,1.6274126 2.192025,4.4836877 z m -8.10385,-2.7898501 q -0.232488,0.2989125 -0.730676,1.19565 -0.498187,0.8967376 -1.162437,2.1588126 -0.631038,1.2288626 -1.361713,2.6902126 -0.697462,1.46135 -1.361712,2.889488 2.490937,0 4.583325,-0.464975 2.092388,-0.464975 3.620163,-1.295288 1.527775,-0.863525 2.358087,-1.99275 0.863525,-1.162438 0.863525,-2.5573626 0,-1.6606251 -1.19565,-2.5241501 -1.19565,-0.8967376 -3.686587,-0.8967376 -0.564613,0 -1.129225,0.066425 -0.564613,0.033213 -1.19565,0.099638 z"
         style="font-style:normal;font-variant:normal;font-weight:normal;font-stretch:normal;font-size:33.2125px;font-family:'Kaushan Script';-inkscape-font-specification:'Kaushan Script, Normal';font-variant-ligatures:normal;font-variant-caps:normal;font-variant-numeric:normal;font-variant-east-asian:normal;fill:#fed136;fill-opacity:1;stroke-width:0.889621"
         id="path897" />
      <path
         d="m 103.56265,13.792345 q -0.13285,2.059175 -0.73068,3.553737 -0.59782,1.46135 -1.72705,2.590575 -1.09601,1.096013 -2.69021,1.99275 -1.5942,0.896738 -3.719801,1.727051 0,0.199275 -0.03321,0.431762 0,0.199275 0,0.431763 0,0.431762 0.06642,0.896737 0.06642,0.464975 0.232488,0.863525 0.166062,0.39855 0.464975,0.66425 0.298912,0.232488 0.763887,0.232488 0.896738,0 1.760263,-0.39855 0.863525,-0.39855 1.627412,-0.963163 0.797106,-0.597825 1.461356,-1.262075 0.69746,-0.697462 1.22886,-1.262075 0.33212,0.298913 0.56461,0.564613 -1.49456,1.99275 -3.288038,3.32125 -1.760263,1.295287 -3.354463,1.660625 -2.291663,-0.2657 -3.58695,-1.660625 -1.262075,-1.428138 -1.262075,-3.420888 0,-1.361712 0.365337,-2.756638 0.39855,-1.428137 1.0628,-2.723425 0.697463,-1.3285 1.5942,-2.490937 0.929951,-1.162438 1.959538,-2.025963 1.0628,-0.863525 2.158813,-1.361712 1.129225,-0.498188 2.225238,-0.498188 1.52778,0.199275 2.85628,1.893113 z m -2.29167,1.096012 q -0.89673,0.13285 -1.859895,0.730675 -0.963163,0.597825 -1.826688,1.5942 -0.830312,0.996375 -1.527775,2.324875 -0.697462,1.3285 -1.096012,2.856276 2.657,-1.328501 4.417262,-3.254826 1.760258,-1.959537 1.893108,-4.2512 z"
         style="font-style:normal;font-variant:normal;font-weight:normal;font-stretch:normal;font-size:33.2125px;font-family:'Kaushan Script';-inkscape-font-specification:'Kaushan Script, Normal';font-variant-ligatures:normal;font-variant-caps:normal;font-variant-numeric:normal;font-variant-east-asian:normal;fill:#fed136;fill-opacity:1;stroke-width:0.889621"
         id="path899" />
      <path
         d="m 105.29956,21.69692 q 0,-1.893113 0.76389,-3.653375 0.7971,-1.793475 2.05917,-3.155188 1.29529,-1.394925 2.9227,-2.225237 1.66063,-0.863525 3.42089,-0.863525 1.72705,0 2.657,0.863525 0.92995,0.863525 0.92995,2.457725 0,0.763887 -0.23249,1.494562 -0.19927,0.697463 -0.56461,1.262075 -0.33213,0.564613 -0.7971,0.92995 -0.46498,0.332125 -0.92995,0.332125 -0.39855,0 -0.83031,-0.232487 -0.39855,-0.2657 -0.66425,-0.66425 2.22523,-2.025963 2.22523,-3.686588 0,-0.963162 -0.76388,-0.963162 -0.66425,0 -1.66063,0.631037 -0.99637,0.631038 -1.92632,1.660625 -1.42814,1.5942 -2.19203,3.553738 -0.73067,1.926325 -0.73067,4.051925 0,2.690213 1.19565,3.221613 0.49818,-0.06643 1.16243,-0.298913 0.66425,-0.232487 1.42814,-0.597825 0.76389,-0.39855 1.56099,-0.896737 0.83031,-0.498188 1.5942,-1.0628 0.13285,0.09964 0.23249,0.298912 0.0996,0.199275 0.0996,0.365338 -0.56461,0.697462 -1.29528,1.361712 -0.73068,0.66425 -1.52778,1.228863 -0.7971,0.5314 -1.56099,0.896737 -0.73067,0.39855 -1.29528,0.498188 -1.09602,-0.09964 -2.05918,-0.697463 -0.96316,-0.564612 -1.69384,-1.494562 -0.69746,-0.92995 -1.12922,-2.1256 -0.39855,-1.19565 -0.39855,-2.490938 z"
         style="font-style:normal;font-variant:normal;font-weight:normal;font-stretch:normal;font-size:33.2125px;font-family:'Kaushan Script';-inkscape-font-specification:'Kaushan Script, Normal';font-variant-ligatures:normal;font-variant-caps:normal;font-variant-numeric:normal;font-variant-east-asian:normal;fill:#fed136;fill-opacity:1;stroke-width:0.889621"
         id="path901" />
      <path
         d="m 122.96601,28.704758 q -1.89311,-0.199275 -3.02233,-1.660625 -1.12923,-1.46135 -1.12923,-3.7198 0,-1.328501 0.39855,-2.756638 0.39855,-1.428138 1.12923,-2.756638 0.73067,-1.361712 1.72705,-2.557362 0.99637,-1.19565 2.15881,-2.059175 1.82669,-1.361713 3.42089,-1.361713 1.0628,0.564613 2.09238,2.358088 0.16607,0 0.29892,0 0.13285,-0.03321 0.29891,-0.03321 1.76026,0 1.76026,3.121975 0,2.092388 -0.69746,3.9855 -0.66425,1.859901 -1.89311,3.387676 -1.19565,1.527775 -2.88949,2.590575 -1.66063,1.029587 -3.65338,1.46135 z m 1.69384,-10.461938 q -0.56461,0.763887 -1.0628,1.660625 -0.49819,0.896737 -0.86352,1.826687 -0.36534,0.896738 -0.56462,1.760263 -0.19927,0.830313 -0.19927,1.494563 0,0.7971 0.2657,1.527775 0.2657,0.730675 0.59782,0.830312 1.49457,-0.332125 2.72343,-1.228862 1.26207,-0.92995 2.15881,-2.291663 0.92995,-1.361712 1.42814,-3.088763 0.5314,-1.72705 0.5314,-3.686587 0,-0.863525 -0.0996,-1.361713 -0.0996,-0.498187 -0.33212,-0.863525 -1.46135,0.431763 -2.62379,1.394925 -1.12923,0.963163 -1.95954,2.025963 z"
         style="font-style:normal;font-variant:normal;font-weight:normal;font-stretch:normal;font-size:33.2125px;font-family:'Kaushan Script';-inkscape-font-specification:'Kaushan Script, Normal';font-variant-ligatures:normal;font-variant-caps:normal;font-variant-numeric:normal;font-variant-east-asian:normal;fill:#fed136;fill-opacity:1;stroke-width:0.889621"
         id="path903" />
      <path
         d="m 152.90397,17.346082 q -0.5314,0.03321 -1.29529,0.697463 -0.76389,0.631037 -1.66063,1.660625 -0.86352,0.996375 -1.82668,2.225237 -0.92995,1.228863 -1.82669,2.457726 -0.86353,1.19565 -1.62741,2.25845 -0.76389,1.0628 -1.29529,1.693837 -0.73068,-0.298912 -1.26208,-0.863525 -0.5314,-0.597825 -0.76388,-1.46135 0.16606,-1.029587 0.46497,-2.1256 0.29891,-1.129225 0.76389,-2.324875 0.49819,-1.19565 1.19565,-2.490938 0.73067,-1.3285 1.76026,-2.78985 -0.49819,0.03321 -1.36171,0.730675 -0.86353,0.66425 -1.8599,1.760263 -0.99638,1.0628 -2.05918,2.424512 -1.0628,1.328501 -1.99275,2.623788 -1.22886,1.72705 -2.05917,3.022338 -0.7971,1.295287 -1.16244,1.527775 -0.86352,-0.631038 -1.19565,-1.361713 -0.33212,-0.730675 -0.49819,-1.627412 0.0332,-0.7971 0.23249,-1.99275 0.23249,-1.19565 0.63104,-2.457726 0.76389,-2.424512 1.95954,-4.815812 1.22886,-2.3913 2.35808,-4.38405 0.92995,0.199275 1.66063,0.631037 0.76389,0.431763 1.5942,1.262075 -0.33213,1.029588 -1.02959,2.192025 -0.69746,1.129225 -1.46135,2.3913 -0.76389,1.262075 -1.39492,2.590575 -0.63104,1.328501 -0.83032,2.690213 0.92995,-1.3285 2.19203,-3.05555 1.29529,-1.72705 2.62379,-3.254825 1.36171,-1.527775 2.69021,-2.590575 1.3285,-1.0628 2.3913,-1.0628 0.39855,0 0.86352,0.13285 0.46498,0.13285 0.86353,0.332125 0.39855,0.199275 0.66425,0.39855 0.2657,0.166062 0.29891,0.2657 -0.16606,0.66425 -0.7971,1.826687 -0.59782,1.129225 -1.29529,2.3913 -0.69746,1.262075 -1.29528,2.457725 -0.59783,1.162438 -0.69747,1.859901 1.62742,-2.225238 3.05555,-4.018713 1.42814,-1.826688 2.69022,-3.121975 1.26207,-1.295288 2.32487,-1.99275 1.09601,-0.697463 2.05918,-0.697463 0.66425,0 1.22886,0.365338 0.59782,0.332125 0.83031,0.996375 -0.29891,0.996375 -0.99637,2.3913 -0.66425,1.394925 -1.36172,2.955912 -0.69746,1.527775 -1.26207,3.022338 -0.5314,1.494563 -0.5314,2.690213 0,0.697462 0.19927,0.92995 0.19928,0.199275 0.56462,0.199275 0.39855,0 0.73067,-0.13285 0.36534,-0.166063 0.5314,-0.166063 0.19928,0.13285 0.23249,0.332125 0.0332,0.199275 0.0332,0.365338 -0.66425,0.5314 -1.36171,0.863525 -0.69746,0.365337 -1.56099,0.365337 -0.7971,0 -1.3285,-0.2657 -0.49819,-0.2657 -0.83031,-0.730675 -0.33213,-0.464975 -0.46498,-1.0628 -0.13285,-0.597825 -0.13285,-1.295287 0,-1.129225 0.29892,-2.225238 0.29891,-1.129225 0.69746,-2.1256 0.43176,-1.029588 0.89674,-1.893113 0.46497,-0.896737 0.7971,-1.5942 z"
         style="font-style:normal;font-variant:normal;font-weight:normal;font-stretch:normal;font-size:33.2125px;font-family:'Kaushan Script';-inkscape-font-specification:'Kaushan Script, Normal';font-variant-ligatures:normal;font-variant-caps:normal;font-variant-numeric:normal;font-variant-east-asian:normal;fill:#fed136;fill-opacity:1;stroke-width:0.889621"
         id="path905" />
      <path
         d="m 159.16868,25.317083 q 0,-0.298913 0.0332,-0.730675 0.0664,-0.464975 0.19927,-1.19565 0.13285,-0.763888 0.33213,-1.826688 0.23248,-1.0628 0.56461,-2.557363 0.0664,-0.332125 0.29891,-1.0628 0.23249,-0.730675 0.59783,-1.527775 0.39855,-0.830312 0.92995,-1.5942 0.56461,-0.763887 1.3285,-1.129225 0.56461,0.13285 1.49456,0.697463 0.92995,0.5314 1.5942,1.494562 -0.76389,0.863525 -1.29529,1.72705 -0.49819,0.863525 -0.92995,1.793475 -0.39855,0.92995 -0.76389,1.926325 -0.33212,0.996376 -0.76388,2.092388 -0.36534,0.92995 -0.66425,1.926325 -0.29892,0.963163 -0.33213,1.693838 0,0.597825 -0.0332,0.830312 0,0.2657 -0.16606,0.2657 -0.13285,0 -0.5314,-0.166062 -0.39855,-0.166063 -0.83032,-0.498188 -0.39855,-0.365337 -0.73067,-0.896737 -0.33213,-0.5314 -0.33213,-1.262075 z m 6.34359,-14.414226 q 0,-0.199275 0.0996,-0.597825 -0.16606,-0.166063 -0.29891,-0.4981876 -0.0996,-0.332125 -0.0996,-0.597825 0,-0.2989125 0.0664,-0.7971 0.0996,-0.5314001 0.23249,-1.1292251 0.13285,-0.597825 0.33213,-1.2288625 0.19927,-0.6642501 0.39855,-1.1956501 0.39855,0 0.96316,0.2324875 0.59782,0.199275 1.19565,0.5646125 0.59782,0.3321251 1.09601,0.7638876 0.49819,0.39855 0.76389,0.7638875 -0.36534,0.3653375 -0.96316,1.0295876 -0.59783,0.6310375 -1.16244,1.3617125 -0.56461,0.6974621 -1.02959,1.3285001 -0.46497,0.631038 -0.59782,0.896738 -0.39855,-0.06643 -0.69747,-0.332125 -0.29891,-0.298913 -0.29891,-0.564613 z"
         style="font-style:normal;font-variant:normal;font-weight:normal;font-stretch:normal;font-size:33.2125px;font-family:'Kaushan Script';-inkscape-font-specification:'Kaushan Script, Normal';font-variant-ligatures:normal;font-variant-caps:normal;font-variant-numeric:normal;font-variant-east-asian:normal;fill:#fed136;fill-opacity:1;stroke-width:0.889621"
         id="path907" />
      <path
         d="m 178.87459,13.792345 q -0.13285,2.059175 -0.73067,3.553737 -0.59783,1.46135 -1.72705,2.590575 -1.09602,1.096013 -2.69022,1.99275 -1.5942,0.896738 -3.7198,1.727051 0,0.199275 -0.0332,0.431762 0,0.199275 0,0.431763 0,0.431762 0.0664,0.896737 0.0664,0.464975 0.23248,0.863525 0.16607,0.39855 0.46498,0.66425 0.29891,0.232488 0.76389,0.232488 0.89673,0 1.76026,-0.39855 0.86352,-0.39855 1.62741,-0.963163 0.7971,-0.597825 1.46135,-1.262075 0.69746,-0.697462 1.22886,-1.262075 0.33213,0.298913 0.56462,0.564613 -1.49457,1.99275 -3.28804,3.32125 -1.76026,1.295287 -3.35446,1.660625 -2.29167,-0.2657 -3.58696,-1.660625 -1.26207,-1.428138 -1.26207,-3.420888 0,-1.361712 0.36534,-2.756638 0.39855,-1.428137 1.0628,-2.723425 0.69746,-1.3285 1.5942,-2.490937 0.92995,-1.162438 1.95954,-2.025963 1.0628,-0.863525 2.15881,-1.361712 1.12922,-0.498188 2.22524,-0.498188 1.52777,0.199275 2.85627,1.893113 z m -2.29166,1.096012 q -0.89674,0.13285 -1.8599,0.730675 -0.96316,0.597825 -1.82669,1.5942 -0.83031,0.996375 -1.52777,2.324875 -0.69747,1.3285 -1.09602,2.856276 2.657,-1.328501 4.41727,-3.254826 1.76026,-1.959537 1.89311,-4.2512 z"
         style="font-style:normal;font-variant:normal;font-weight:normal;font-stretch:normal;font-size:33.2125px;font-family:'Kaushan Script';-inkscape-font-specification:'Kaushan Script, Normal';font-variant-ligatures:normal;font-variant-caps:normal;font-variant-numeric:normal;font-variant-east-asian:normal;fill:#fed136;fill-opacity:1;stroke-width:0.889621"
         id="path909" />
      <path
         d="m 185.79264,11.434257 q 0.86353,0.2657 1.62742,1.19565 0.76388,0.896738 1.12922,1.99275 -0.36534,0.896738 -1.12922,2.158813 -0.76389,1.262075 -1.52778,2.590575 -0.76389,1.295287 -1.39492,2.490937 -0.59783,1.162438 -0.69747,1.926326 0.5314,-0.564613 1.16244,-1.295288 0.66425,-0.763888 1.26208,-1.494563 0.63103,-0.763887 1.16243,-1.361712 0.5314,-0.631038 0.83032,-0.92995 0.63103,-0.66425 1.49456,-1.527775 0.86352,-0.896738 1.79347,-1.660625 0.96317,-0.7971 1.92633,-1.3285 0.96316,-0.564613 1.76026,-0.564613 0.86353,0 1.42814,0.597825 0.59782,0.564613 0.92995,1.19565 0,0.06642 -0.2657,0.199275 -0.23249,0.09964 -0.69746,0.631038 -0.46498,0.597825 -1.0628,1.660625 -0.56462,1.029587 -1.12923,2.25845 -0.5314,1.19565 -0.89674,2.457725 -0.36533,1.262075 -0.36533,2.291663 0,0.830312 0.19927,1.0628 0.23249,0.232487 0.63104,0.232487 0.36534,0 0.76389,-0.166062 0.39855,-0.166063 0.63103,-0.166063 0.13285,0.06642 0.19928,0.298913 0.0996,0.199275 0.0996,0.365337 -0.2657,0.232488 -0.63104,0.464975 -0.36534,0.232488 -0.76389,0.431763 -0.39855,0.199275 -0.7971,0.332125 -0.36534,0.13285 -0.66425,0.13285 -0.96316,0 -1.5942,-0.298913 -0.59782,-0.2657 -0.96316,-0.730675 -0.33213,-0.464975 -0.46498,-1.096012 -0.13285,-0.66425 -0.13285,-1.394925 0,-0.39855 0.0664,-0.896738 0.0664,-0.498187 0.2657,-1.162437 0.19927,-0.697463 0.56461,-1.627413 0.36534,-0.963163 0.92995,-2.291663 -0.0664,0 -0.89674,0.464975 -0.83031,0.464975 -1.79347,1.428138 -1.56099,1.494562 -2.82306,2.955913 -1.22887,1.46135 -2.52415,3.254825 -0.73068,1.029587 -1.29529,1.72705 -0.5314,0.730675 -0.92995,0.963162 -0.69746,-0.39855 -1.02959,-1.129225 -0.33212,-0.697462 -0.49819,-1.46135 0,-0.631037 0.16607,-1.5942 0.19927,-0.963162 0.49818,-2.1256 0.33213,-1.19565 0.7971,-2.490938 0.46498,-1.295287 1.02959,-2.590575 1.26208,-2.9227 2.29166,-4.583325 1.0628,-1.660625 1.3285,-1.793475 z"
         style="font-style:normal;font-variant:normal;font-weight:normal;font-stretch:normal;font-size:33.2125px;font-family:'Kaushan Script';-inkscape-font-specification:'Kaushan Script, Normal';font-variant-ligatures:normal;font-variant-caps:normal;font-variant-numeric:normal;font-variant-east-asian:normal;fill:#fed136;fill-opacity:1;stroke-width:0.889621"
         id="path911" />
      <path
         d="m 205.55617,12.032082 q 0.66425,0 1.52777,0.39855 0.86353,0.39855 1.52778,1.029588 -0.16606,-1.3285 -0.43176,-2.490938 -0.23249,-1.1956501 -0.73068,-2.4577251 -0.46497,-1.2620751 -1.26207,-2.7566376 -0.7971,-1.4945626 -1.99275,-3.4208877 0.0996,-0.2989125 0.43176,-0.6974625 0.36534,-0.3985501 0.7971,-0.73067507 0.46497,-0.36533752 0.92995,-0.63103753 0.49819,-0.26570001 0.92995,-0.33212502 0.92995,1.02958755 1.76026,2.59057512 0.83031,1.5277751 1.46135,3.3212502 0.63104,1.7602625 0.96316,3.6533751 0.36534,1.8931131 0.36534,3.6201631 0,1.72705 -0.39855,3.553737 -0.36534,1.826688 -1.0628,3.58695 -0.66425,1.72705 -1.56099,3.288038 -0.89673,1.560988 -1.95953,2.78985 -1.02959,1.228863 -2.15882,1.99275 -1.12922,0.7971 -2.25845,0.996375 -2.29166,-0.2657 -3.52052,-1.494562 -1.19565,-1.19565 -1.19565,-3.32125 0,-1.129225 0.33212,-2.457726 0.36534,-1.3285 0.92995,-2.623787 0.59783,-1.3285 1.36172,-2.557363 0.7971,-1.262075 1.66062,-2.25845 0.89674,-0.996375 1.79348,-1.693837 0.89673,-0.697463 1.76026,-0.896738 z m -3.38768,15.975213 q 1.16244,-0.39855 2.32488,-1.760262 1.16244,-1.361713 2.09239,-3.1884 0.92995,-1.859901 1.49456,-3.952288 0.59782,-2.1256 0.59782,-4.085138 0,-0.564612 0,-0.697462 0,-0.13285 -0.0332,-0.2657 -0.7971,0.332125 -1.69384,1.129225 -0.89673,0.7971 -1.79347,1.8599 -0.89674,1.029587 -1.69384,2.25845 -0.7971,1.228862 -1.42814,2.457725 -0.63103,1.228863 -0.99637,2.358088 -0.36534,1.129225 -0.36534,1.99275 0,1.660625 1.49456,1.893112 z"
         style="font-style:normal;font-variant:normal;font-weight:normal;font-stretch:normal;font-size:33.2125px;font-family:'Kaushan Script';-inkscape-font-specification:'Kaushan Script, Normal';font-variant-ligatures:normal;font-variant-caps:normal;font-variant-numeric:normal;font-variant-east-asian:normal;fill:#fed136;fill-opacity:1;stroke-width:0.889621"
         id="path913" />
      <path
         d="m 224.17488,14.12447 q 0.33213,0 0.76389,0.13285 0.46498,0.09964 0.83031,0.298912 0.36534,0.166063 0.59783,0.365338 0.2657,0.199275 0.2657,0.365337 -0.66425,1.394925 -1.22886,2.823063 -0.56462,1.394925 -0.96317,2.690212 -0.39855,1.295288 -0.63103,2.424513 -0.19928,1.129225 -0.19928,1.959538 0,0.92995 0.19928,1.560987 0.19927,0.597825 0.66425,0.863525 -0.39855,0.2657 -1.02959,0.431763 -0.63104,0.166062 -1.12923,0.166062 -1.79347,0 -1.79347,-2.457725 0,-1.893112 1.26207,-5.18115 -0.66425,1.527775 -1.52777,2.889488 -0.86353,1.3285 -1.76026,2.358087 -0.89674,1.029588 -1.82669,1.693838 -0.89674,0.631037 -1.66063,0.763887 -1.22886,-0.06643 -1.99275,-1.162437 -0.76388,-1.129225 -0.76388,-2.856275 0,-1.8599 0.7971,-3.919076 0.7971,-2.059175 2.02596,-3.819437 1.26207,-1.760263 2.72342,-2.9227 1.46135,-1.19565 2.82307,-1.262075 0.33212,0.09964 0.73067,0.39855 0.43176,0.298912 0.7971,0.697462 0.39855,0.39855 0.66425,0.830313 0.2657,0.39855 0.29891,0.697462 -1.3285,0.199275 -2.75663,1.295288 -1.39493,1.096012 -2.55737,2.657 -1.12922,1.527775 -1.8599,3.288038 -0.73067,1.760262 -0.73067,3.288037 0,0.631038 0.46497,0.7971 0.96317,-0.199275 2.22524,-1.627412 1.26208,-1.46135 3.05555,-4.483688 0.33213,-0.597825 0.73068,-1.3285 0.43176,-0.730675 0.86352,-1.527775 0.43176,-0.7971 0.83031,-1.5942 0.43177,-0.830313 0.7971,-1.5942 z"
         style="font-style:normal;font-variant:normal;font-weight:normal;font-stretch:normal;font-size:33.2125px;font-family:'Kaushan Script';-inkscape-font-specification:'Kaushan Script, Normal';font-variant-ligatures:normal;font-variant-caps:normal;font-variant-numeric:normal;font-variant-east-asian:normal;fill:#fed136;fill-opacity:1;stroke-width:0.889621"
         id="path915" />
    </g>
  </a>
</svg>
