<svg xmlns="http://www.w3.org/2000/svg" viewBox="0 0 301.47 302.76"><defs><style>.cls-1{fill:none;}.cls-2{fill:#b1b3b6;}.cls-3{fill:#a92923;}.cls-4{fill:#70bf44;}.cls-5{fill:#19b24b;}</style></defs><g id="Layer_2" data-name="Layer 2"><g id="Layer_1-2" data-name="Layer 1"><path class="cls-1" d="M134,243.28c-6.6-10.8-14.6-20.5-24.8-28C119.33,222.88,127.33,232.58,134,243.28Z"/><path class="cls-1" d="M134,243.3a45.61,45.61,0,0,1,3.28,6.12A41.85,41.85,0,0,0,134,243.3Z"/><path class="cls-1" d="M19.43,189.79c12.1,67.3,76.2,99.7,122.7,93.6C95.63,289.39,31.53,257.09,19.43,189.79Z"/><path class="cls-1" d="M85,199.79a165.09,165.09,0,0,1,24.19,15.5A157.2,157.2,0,0,0,85,199.79Z"/><path class="cls-1" d="M47.33,189.89c-8-.35-16-.17-24.1-.12C31.34,189.74,39.38,189.63,47.33,189.89Z"/><polygon class="cls-1" points="184.49 58.14 150.93 22.68 150.88 22.74 184.43 58.19 184.49 58.14"/><path class="cls-1" d="M145.13,151.69c-16.54-.1-32.09-4-45.06-14.7C113,147.71,128.59,151.69,145.13,151.69Z"/><path class="cls-1" d="M142.13,283.39c-.3-5.9-.8-11.8-1-17.8C141.33,271.49,141.73,277.49,142.13,283.39Z"/><path class="cls-1" d="M76.23,96.29c-1.2-11.5-1.2-23.1-1.5-34.6C74.93,73.29,75,84.89,76.23,96.29Z"/><path class="cls-1" d="M74.65,49.07c0-7,.08-14.19.08-21.68C74.73,34.83,74.66,42,74.65,49.07Z"/><path class="cls-1" d="M226.93,83.89c-.1,11.1-2.1,21.8-7.5,31.7a67.65,67.65,0,0,1-36.5,31.9,58.69,58.69,0,0,1-20.3,3.6,57.37,57.37,0,0,0,20.4-3.6,67.65,67.65,0,0,0,36.5-31.9c5.4-9.9,7.4-20.7,7.5-31.7.2-17.4.1-34.8.1-52.2v-4.3l-.1.07v4.23C227,49.09,227.23,66.49,226.93,83.89Z"/><path class="cls-1" d="M203.13,207.19c-11.36,7.13-20.51,16.56-29,26.87,8.51-10.27,17.63-19.66,28.86-26.77a115,115,0,0,1,40.9-16.2c12.8-2.3,25.5-1.7,38.3-1.9-9.3,59-65.9,99.8-122.2,94.4,56.3,5.5,112.9-35.4,122.3-94.5-12.8.2-25.6-.4-38.3,1.9A114.22,114.22,0,0,0,203.13,207.19Z"/><path class="cls-1" d="M161.6,258.71s0,0,0-.07S161.6,258.69,161.6,258.71Z"/><path class="cls-1" d="M161,261.75c.08-.43.17-.84.26-1.26C161.15,260.91,161.06,261.32,161,261.75Z"/><path class="cls-1" d="M159.83,274.05a80.35,80.35,0,0,1,1-11.67A80.22,80.22,0,0,0,159.83,274.05Z"/><path d="M145.13,151.69c-16.54,0-32.09-4-45.06-14.7l-.14-.1c-.79-.67-1.57-1.34-2.34-2a87.3,87.3,0,0,1-6.48-6.42c-1.34-1.5-2.61-3-3.81-4.61a59.93,59.93,0,0,1-4.82-7.45,52.59,52.59,0,0,1-6.25-20.1c-1.2-11.4-1.3-23-1.5-34.6-.07-4.21-.09-8.39-.08-12.62,0-7.07.08-14.24.08-21.68l42.6,30.8,33.5-35.5,0,0V0a8,8,0,0,0-5.65,2,136.3,136.3,0,0,0-10.8,10.7c-6.5,7-12.9,14-19.4,21-2.1-1.4-3.9-2.6-5.6-3.8-12.7-9.2-25.4-18.5-38.1-27.7a9.16,9.16,0,0,0-10.8-.5c-3.3,1.9-3.9,5-3.9,8.4.1,26.1-.2,52.3.2,78.5A82.67,82.67,0,0,0,60,109a81,81,0,0,0,24,38.7c10.3,9.2,22,15.9,35.4,19.2,7.3,1.7,14.7,2.5,22.3,3.8v50.9a4.26,4.26,0,0,1-1.1-1.2,121.4,121.4,0,0,0-29.1-27.2A127.6,127.6,0,0,0,73,175.29a134.24,134.24,0,0,0-36.7-5c-8.8.1-17.6.4-26.3-.1-5.4-.3-10.5,5-10,10,.3,3,.4,6,.7,8.9a114.67,114.67,0,0,0,9.7,34.4c8.4,18.4,19.7,34.5,35.6,47.5a146.05,146.05,0,0,0,32.1,20.3,132.8,132.8,0,0,0,53.8,11.3c6.26,0,12.54.14,18.83.17l.06-151.23C148.92,151.61,147,151.69,145.13,151.69Zm-125.7,38.1,3.8,0c8.11-.05,16.14-.23,24.1.12h0a88.87,88.87,0,0,1,9.78.91,89.76,89.76,0,0,1,9.6,2q2.37.63,4.71,1.38c2.33.75,4.64,1.6,6.91,2.54s4.51,2,6.7,3.1h0a157.2,157.2,0,0,1,24.19,15.5c10.2,7.49,18.2,17.19,24.8,28h0a41.85,41.85,0,0,1,3.28,6.12,43.84,43.84,0,0,1,3.81,16.17c.2,6,.7,11.9,1,17.8C95.63,289.49,31.53,257.09,19.43,189.79Z"/><path d="M293.33,170.49c-15.5.3-31-1-46.5,1.2a132.61,132.61,0,0,0-33.2,8.9c-16.2,6.9-30.9,16.3-43.1,29.2-3.5,3.7-7,7.6-10.6,11.6v-50.9c6.9-1,13.5-1.5,19.9-2.9,15.5-3.4,28.9-11.2,40.2-22.1,5-4.8,9-10.8,12.7-16.7,7.6-12.1,12-25.4,12.1-39.8.1-22.3,0-44.6,0-66.8,0-4.5.1-9,0-13.5,0-2.9-1-5.5-3.8-7-3.3-1.6-6.5-2.6-9.9-.1-7.9,5.7-15.8,11.3-23.7,17l-21,15.1c-.9-.9-1.5-1.6-2.1-2.3-8.9-9.4-17.8-18.9-26.8-28.2A9.91,9.91,0,0,0,150.88,0V22.73h0l.05,0,33.56,35.45L227,27.39v.07l.1-.07v4.3c0,17.4.1,34.8-.1,52.2-.1,11-2.1,21.8-7.5,31.7a67.65,67.65,0,0,1-36.5,31.9,57.37,57.37,0,0,1-20.4,3.6c-3.91,0-7.87.26-11.81.44l-.06,151.23c6.76,0,13.53,0,20.27-.27a160.39,160.39,0,0,0,26.8-2.9c25.8-5.5,48-18,66.6-36.6,6.4-6.4,11.8-14,17-21.6a113.53,113.53,0,0,0,16.5-37.3c1.9-8,2.7-16.3,3.5-24.5C301.93,174.89,297.63,170.39,293.33,170.49ZM160,283.59c-.18-3.22-.27-6.4-.2-9.54a80.22,80.22,0,0,1,1-11.67c0-.21.07-.43.1-.63.08-.43.17-.84.26-1.26.11-.6.22-1.19.36-1.78,0,0,0,0,0-.07a54.21,54.21,0,0,1,10.82-22.45c.58-.72,1.16-1.42,1.74-2.13,8.45-10.31,17.6-19.74,29-26.87A114.22,114.22,0,0,1,244,191c12.7-2.3,25.5-1.7,38.3-1.9C272.93,248.19,216.33,289.09,160,283.59Z"/><path class="cls-2" d="M150.82,151.53c3.94-.18,7.9-.44,11.81-.44a58.69,58.69,0,0,0,20.3-3.6,67.65,67.65,0,0,0,36.5-31.9c5.4-9.9,7.4-20.6,7.5-31.7.3-17.4.1-34.8.1-52.2V27.46l-42.5,30.73,0,0-.06,0L150.88,22.74h0Z"/><path class="cls-3" d="M117.33,58.19l-42.6-30.8c0,7.49-.07,14.64-.08,21.68,0,4.23,0,8.42.08,12.62.3,11.5.3,23.1,1.5,34.6a52.59,52.59,0,0,0,6.25,20.1,59.93,59.93,0,0,0,4.82,7.45c1.2,1.58,2.47,3.11,3.81,4.61a87.3,87.3,0,0,0,6.48,6.42c.77.68,1.55,1.35,2.34,2l.14.1c13,10.72,28.52,14.6,45.06,14.7,1.89,0,3.79-.08,5.69-.16l.05-128.78Z"/><polygon class="cls-3" points="117.33 58.19 150.88 22.75 150.88 22.73 150.83 22.68 117.33 58.19"/><path class="cls-3" d="M87.3,123.84a59.93,59.93,0,0,1-4.82-7.45A59.93,59.93,0,0,0,87.3,123.84Z"/><polygon class="cls-3" points="227.03 27.46 227.03 27.39 184.49 58.14 184.53 58.19 227.03 27.46"/><path class="cls-3" d="M91.11,128.45a87.3,87.3,0,0,0,6.48,6.42A87.3,87.3,0,0,1,91.11,128.45Z"/><polygon class="cls-3" points="150.88 22.74 150.88 22.73 150.88 22.75 150.88 22.74"/><path class="cls-3" d="M97.59,134.87c.77.68,1.55,1.35,2.34,2l.14.1-.14-.1C99.14,136.22,98.36,135.55,97.59,134.87Z"/><path class="cls-3" d="M74.73,61.69c-.07-4.2-.09-8.39-.08-12.62C74.64,53.3,74.66,57.48,74.73,61.69Z"/><path class="cls-3" d="M91.11,128.45c-1.34-1.5-2.61-3-3.81-4.61C88.5,125.42,89.77,127,91.11,128.45Z"/><path class="cls-4" d="M137.32,249.42A45.61,45.61,0,0,0,134,243.3h0c-6.7-10.7-14.7-20.4-24.8-28A165.09,165.09,0,0,0,85,199.79h0c-2.19-1.13-4.43-2.16-6.7-3.1s-4.58-1.79-6.91-2.54q-2.34-.75-4.71-1.38a89.76,89.76,0,0,0-9.6-2,88.87,88.87,0,0,0-9.78-.91h0c-7.95-.26-16-.15-24.1-.12l-3.8,0c12.1,67.3,76.2,99.6,122.7,93.6-.4-5.9-.8-11.9-1-17.8A46,46,0,0,0,137.32,249.42Z"/><path class="cls-4" d="M71.42,194.15c2.33.75,4.64,1.6,6.91,2.54C76.06,195.75,73.75,194.9,71.42,194.15Z"/><polygon class="cls-4" points="134.04 243.3 134.03 243.28 134.03 243.28 134.03 243.28 134.04 243.3"/><path class="cls-4" d="M85,199.79h0c-2.19-1.13-4.43-2.16-6.7-3.1,2.27.94,4.51,2,6.7,3.1Z"/><path class="cls-4" d="M57.11,190.8a88.87,88.87,0,0,0-9.78-.91h0A88.87,88.87,0,0,1,57.11,190.8Z"/><path class="cls-4" d="M19.43,189.79l3.8,0Z"/><path class="cls-4" d="M137.32,249.42a46,46,0,0,1,3.81,16.17A43.84,43.84,0,0,0,137.32,249.42Z"/><path class="cls-4" d="M57.11,190.8a89.76,89.76,0,0,1,9.6,2A89.76,89.76,0,0,0,57.11,190.8Z"/><path class="cls-2" d="M282.23,189.19c-12.8.2-25.5-.4-38.3,1.9a115,115,0,0,0-40.9,16.2c-11.23,7.11-20.35,16.5-28.86,26.77-.55.67-1.09,1.35-1.64,2a54.49,54.49,0,0,0-10.92,22.55s0,.05,0,.07c-.14.59-.25,1.19-.36,1.78-.09.42-.18.83-.26,1.26,0,.2-.06.42-.1.63a80.35,80.35,0,0,0-1,11.67c-.06,3.14,0,6.32.2,9.54C216.33,289,272.93,248.19,282.23,189.19Z"/><path class="cls-5" d="M160.88,262.38c0-.21.07-.43.1-.63C161,262,160.92,262.17,160.88,262.38Z"/><path class="cls-5" d="M161.24,260.49c.11-.59.22-1.19.36-1.78C161.46,259.3,161.35,259.89,161.24,260.49Z"/><path class="cls-5" d="M174.17,234.06c-.58.71-1.16,1.41-1.74,2.13a54.21,54.21,0,0,0-10.82,22.45,54.49,54.49,0,0,1,10.92-22.55C173.08,235.41,173.62,234.73,174.17,234.06Z"/><path class="cls-5" d="M159.83,274.05c-.07,3.14,0,6.32.2,9.54C159.85,280.37,159.77,277.19,159.83,274.05Z"/></g></g></svg>