<svg xmlns="http://www.w3.org/2000/svg" viewBox="0 0 404.64 638"><defs><style>.cls-1{fill:#fefefe;}.cls-2{fill:#f15c5b;}.cls-3{fill:#bf4748;}.cls-4{fill:#5c8a40;}.cls-5{fill:#962c29;}.cls-6{fill:#4c6d35;}.cls-7{fill:#782421;}.cls-8{font-size:100px;fill:#fff;font-family:Lato-Black, Lato;font-weight:800;}</style></defs><g id="Layer_2" data-name="Layer 2"><g id="Layer_1-2" data-name="Layer 1"><path class="cls-1" d="M.11,318.43Q.11,161.56,0,4.7C0,.77.77,0,4.69,0Q202.32.2,400,0c3.92,0,4.69.77,4.69,4.7q-.18,314.3,0,628.6c0,3.93-.77,4.7-4.69,4.7q-197.62-.19-395.26,0C.77,638,0,637.23,0,633.3Q.21,475.86.11,318.43ZM255.72,42.3c-14.71-5.75-30-9.68-45.22-13.58a51.11,51.11,0,0,0-29.71,1.14c-18,6-35.86,12.54-53.44,19.79a72.78,72.78,0,0,1-7.4-.52c-16-2.71-31.92-5.52-47.88-8.3-2-.36-4.39-1.4-6,.38-1.78,2-.27,4.34.47,6.46,2,5.58,4,11.14,5.94,16.71C72.13,68.83,68.6,67.9,66,67.9c-13.85,0-27.1-4.25-40.7-6.07-1.79-.24-3.87-1.56-5.25.54s.36,3.62,1.33,5.19c10.34,16.8,16.6,35.2,21.11,54.25,7.43,31.39,8.31,63.58,11.47,95.5C56.09,239,62.71,259.23,75.55,277c20.58,28.46,49,46.08,81.63,57.36,8.82,3.05,18,5.18,27,7.71,5,1.41,7.2,4.48,6.06,9.81a48.16,48.16,0,0,0,0,18.8c-1.64,12.84-.51,25.75-1.1,38.61-.1,2.3,1,5.15-2.32,6.31a127.89,127.89,0,0,0-19-22.13c-10.78-9.83-23.34-15-38.16-13.82-4,.31-7,2.1-6.48,6.29.9,8,.25,16,1.83,24,5.55,28,28.26,50.95,54.86,54.87,8.63,5,10.21,13.37,10.26,22.19.17,31.13.11,62.26.22,93.39a121.41,121.41,0,0,0,.81,14.27c1.11,9.18,3.39,11.49,12.55,13.68,5.66,1.35,10.24-.93,12.49-6.28,1.67-4,1.74-8.18,1.74-12.39,0-31.13-.21-62.26.12-93.39.1-9.42-.41-19.17,4.36-28a120.83,120.83,0,0,0,41.81-19.36c10.28-7.39,17.57-16.89,20.61-29.33s2-25.07,1.94-37.65c0-3.58-2.28-4.37-5.47-3.89-12.92,1.91-24.64,6.4-34.62,15.13-9.47,8.3-15.88,19-23.18,29-4.53-1.3-3-5.24-3.22-8.11-1.88-21.43-3.44-42.9-7.26-64.11.2-2.9,2.18-4.17,4.55-5.25a123.22,123.22,0,0,1,18.58-7.1c14.17-3.82,27.61-9.47,40.77-15.87,2.75-1.34,5.52-2.66,6.44-6,5.22-1.26,8-5.58,11.42-9.09,5.08-5.12,7.62-12.4,14.15-16.3,14.44-8.63,24.21-21.26,31-36.45,10.39-23.15,11.7-47.61,10.41-72.4-2.13-40.79,7.34-78.35,30.6-112.18,1.12-1.62,3.48-3.26,2.22-5.43-1.07-1.84-3.53-.86-5.33-.73q-26.81,1.89-53.6,4c-2.43.19-5,1.18-6.67-1.61l18.79-41.33c-18.88,4.63-36.35,9-53.86,13.19C273.68,39.49,265,42.74,255.72,42.3Z"/><path class="cls-2" d="M283.35,315.73c-.92,3.31-3.69,4.63-6.44,6-13.16,6.4-26.6,12.05-40.77,15.87a123.22,123.22,0,0,0-18.58,7.1c-2.37,1.08-4.35,2.35-4.55,5.25-3.5-1.4-7.29-1.73-10.65-3.85-6.74-4.25-10.62-1.86-11,6-.28,6.21,1.31,12.55-1.17,18.62a48.16,48.16,0,0,1,0-18.8c1.14-5.33-1-8.4-6.06-9.81-9-2.53-18.15-4.66-27-7.71-32.65-11.28-61.05-28.9-81.63-57.36C62.71,259.23,56.09,239,54,217.31c-3.16-31.92-4-64.11-11.47-95.5-4.51-19-10.77-37.45-21.11-54.25-1-1.57-2.63-3.19-1.33-5.19s3.46-.78,5.25-.54c13.6,1.82,26.85,6,40.7,6.07,2.61,0,6.14.93,6.53-3.52,2,4.15,6.12,5,9.87,6.13,19.29,5.76,37.23,14.78,55.13,23.63,20,9.88,38.76,22,55.09,37.51,16.93,16.09,32.12,33.49,43.72,54,14.25,25.17,21.42,52.51,26.18,80.72a217.86,217.86,0,0,0,10.83,40.9C275.1,311.92,277.37,316,283.35,315.73Z"/><path class="cls-3" d="M283.35,315.73c-6,.29-8.25-3.81-10-8.49a217.86,217.86,0,0,1-10.83-40.9c-4.76-28.21-11.93-55.55-26.18-80.72-11.6-20.48-26.79-37.88-43.72-54-16.33-15.53-35.09-27.63-55.09-37.51-17.9-8.85-35.84-17.87-55.13-23.63-3.75-1.12-7.89-2-9.87-6.13-2-5.57-4-11.13-5.94-16.71-.74-2.12-2.25-4.45-.47-6.46,1.57-1.78,3.92-.74,6-.38C88,43.61,104,46.42,120,49.13a72.78,72.78,0,0,0,7.4.52c.65,1.79,2.21,2.44,3.78,3.2,17.48,8.4,35.34,15.88,53.36,23,6.34,3.48,12.87,6.81,18.33,11.53,10.08,8.71,20.84,9.4,33.08,5.3,18.6-6.24,37.56-11.41,56.19-17.56,8.61-2.84,18-3.7,25.5-9.61,1.68,2.79,4.24,1.8,6.67,1.61q26.79-2,53.6-4c1.8-.13,4.26-1.11,5.33.73,1.26,2.17-1.1,3.81-2.22,5.43-23.26,33.83-32.73,71.39-30.6,112.18,1.29,24.79,0,49.25-10.41,72.4-6.83,15.19-16.6,27.82-31,36.45-6.53,3.9-9.07,11.18-14.15,16.3C291.31,310.15,288.57,314.47,283.35,315.73Z"/><path class="cls-4" d="M190,372.87c-.19-5.74-2.29-17.41,1.46-23.89.36-8,4.2-7.16,10.94-2.91,3.36,2.12,7.15,2.45,10.65,3.85,3.82,21.21,5.38,42.68,7.26,64.11.25,2.87-1.31,6.81,3.22,8.11-4.06,15.29-2.41,30.71-1.09,46.12-4.77,8.8-4.26,18.55-4.36,28-.33,31.13-.13,62.26-.12,93.39,0,4.21-.07,8.42-1.74,12.39-2.25,5.35-6.83,7.63-12.49,6.28-9.83-2.34-11.74-4.84-12.78-15.78-.39-4.15-.57-8.32-.58-12.49-.11-31-.05-62-.22-93.07-.05-8.82-1.63-17.22-10.26-22.19,5.05,0,8.88-2.12,8.93-7.41.11-14,2.22-28-2-41.77,3.31-1.16,2.22-4,2.32-6.31C189.71,396.41,188.32,385.7,190,372.87Z"/><path class="cls-5" d="M317.59,65.51c-7.47,5.91-16.89,6.77-25.5,9.61-18.63,6.15-37.59,11.32-56.19,17.56-12.24,4.1-23,3.41-33.08-5.3-5.46-4.72-12-8-18.33-11.53a21.35,21.35,0,0,0,7.06-2.07c15.83-7.31,31.71-14.5,47.49-21.89,5.81-2.72,12.05-4.79,16.68-9.59,9.31.44,18-2.81,26.8-4.93,17.51-4.19,35-8.56,53.86-13.19Z"/><path class="cls-6" d="M186.8,415.58c4.2,13.75,2.09,27.82,2,41.77-.05,5.29-3.88,7.43-8.93,7.41-26.6-3.92-49.31-26.83-54.86-54.87-1.58-8-.93-16-1.83-24-.48-4.19,2.46-6,6.48-6.29,14.82-1.14,27.38,4,38.16,13.82A127.89,127.89,0,0,1,186.8,415.58Z"/><path class="cls-6" d="M222.4,468.26c-1.32-15.41-3-30.83,1.09-46.12,7.3-10,13.71-20.68,23.18-29,10-8.73,21.7-13.22,34.62-15.13,3.19-.48,5.46.31,5.47,3.89,0,12.58,1.1,25.24-1.94,37.65s-10.33,21.94-20.61,29.33A120.83,120.83,0,0,1,222.4,468.26Z"/><path class="cls-7" d="M255.72,42.3c-4.63,4.8-10.87,6.87-16.68,9.59-15.78,7.39-31.66,14.58-47.49,21.89a21.35,21.35,0,0,1-7.06,2.07c-18-7.12-35.88-14.6-53.36-23-1.57-.76-3.13-1.41-3.78-3.2,17.58-7.25,35.41-13.76,53.44-19.79a51.11,51.11,0,0,1,29.71-1.14C225.76,32.62,241,36.55,255.72,42.3Z"/><text class="cls-8" transform="translate(128.39 230.93)">4.4</text></g></g></svg>