<svg xmlns="http://www.w3.org/2000/svg" viewBox="0 0 363.99 584.52"><defs><style>.cls-1{fill:#f15c5b;}.cls-2{fill:#bf4748;}.cls-3{fill:#5c8a40;}.cls-4{fill:#962c29;}.cls-5{fill:#4c6d35;}.cls-6{fill:#782421;}.cls-7{isolation:isolate;font-size:100px;fill:#fff;font-family:Lato-Black, Lato;font-weight:800;}</style></defs><g id="Layer_2" data-name="Layer 2"><g id="Layer_1-2" data-name="Layer 1"><g id="Layer_2-2" data-name="Layer 2"><g id="Layer_1-2-2" data-name="Layer 1-2"><path class="cls-1" d="M263.74,291.55c-.92,3.31-3.69,4.63-6.44,6-13.16,6.4-26.6,12.05-40.77,15.87a123.48,123.48,0,0,0-18.58,7.1c-2.37,1.08-4.35,2.35-4.55,5.25-3.5-1.4-7.29-1.73-10.65-3.85-6.74-4.25-10.62-1.86-11,6-.28,6.21,1.31,12.55-1.17,18.62a48.35,48.35,0,0,1,0-18.8c1.14-5.33-1-8.4-6.06-9.81-9-2.53-18.15-4.66-27-7.71-32.65-11.28-61.05-28.9-81.63-57.36-12.79-17.81-19.41-38-21.5-59.73-3.16-31.92-4-64.11-11.47-95.5-4.51-19-10.77-37.45-21.11-54.25-1-1.57-2.63-3.19-1.33-5.19s3.46-.78,5.25-.54c13.6,1.82,26.85,6,40.7,6.07,2.61,0,6.14.93,6.53-3.52,2,4.15,6.12,5,9.87,6.13C82.12,52.09,100.06,61.11,118,70c20,9.88,38.76,22,55.09,37.51,16.93,16.09,32.12,33.49,43.72,54C231,186.64,238.19,214,243,242.19a218.22,218.22,0,0,0,10.83,40.9C255.49,287.74,257.76,291.82,263.74,291.55Z"/><path class="cls-2" d="M263.74,291.55c-6,.29-8.25-3.81-10-8.49a218.22,218.22,0,0,1-10.83-40.9C238.15,214,231,186.61,216.73,161.44c-11.6-20.48-26.79-37.88-43.72-54-16.33-15.53-35.09-27.63-55.09-37.51C100,61.08,82.08,52.06,62.79,46.3c-3.75-1.12-7.89-2-9.87-6.13-2-5.57-4-11.13-5.94-16.71-.74-2.12-2.25-4.45-.47-6.46,1.57-1.78,3.92-.74,6-.38,15.88,2.81,31.88,5.62,47.88,8.33a73.4,73.4,0,0,0,7.4.52c.65,1.79,2.21,2.44,3.78,3.2,17.48,8.4,35.34,15.88,53.36,23,6.34,3.48,12.87,6.81,18.33,11.53,10.08,8.71,20.84,9.4,33.08,5.3,18.6-6.24,37.56-11.41,56.19-17.56,8.61-2.84,18-3.7,25.5-9.61,1.68,2.79,4.24,1.8,6.67,1.61l53.6-4c1.8-.13,4.26-1.11,5.33.73,1.26,2.17-1.1,3.81-2.22,5.43-23.26,33.83-32.73,71.39-30.6,112.18,1.29,24.79,0,49.25-10.41,72.4-6.83,15.19-16.6,27.82-31,36.45-6.53,3.9-9.07,11.18-14.15,16.3C271.7,286,269,290.29,263.74,291.55Z"/><path class="cls-3" d="M170.39,348.69c-.19-5.74-2.29-17.41,1.46-23.89.36-8,4.2-7.16,10.94-2.91,3.36,2.12,7.15,2.45,10.65,3.85,3.82,21.21,5.38,42.68,7.26,64.11.25,2.87-1.31,6.81,3.22,8.11-4.06,15.29-2.41,30.71-1.09,46.12-4.77,8.8-4.26,18.55-4.36,28-.33,31.13-.13,62.26-.12,93.39,0,4.21-.07,8.42-1.74,12.39-2.25,5.35-6.83,7.63-12.49,6.28-9.83-2.34-11.74-4.84-12.78-15.78-.39-4.15-.57-8.32-.58-12.49-.11-31,0-62-.22-93.07,0-8.82-1.63-17.22-10.26-22.19,5.05,0,8.88-2.12,8.93-7.41.11-14,2.22-28-2-41.77,3.31-1.16,2.22-4,2.32-6.31C170.1,372.23,168.71,361.52,170.39,348.69Z"/><path class="cls-4" d="M298,41.33c-7.47,5.91-16.89,6.77-25.5,9.61-18.63,6.15-37.59,11.32-56.19,17.56-12.24,4.1-23,3.41-33.08-5.3-5.46-4.72-12-8-18.33-11.53a21.45,21.45,0,0,0,7.06-2.07c15.83-7.31,31.71-14.5,47.49-21.89,5.81-2.72,12-4.79,16.68-9.59,9.31.44,18-2.81,26.8-4.93C280.42,9,297.91,4.63,316.77,0Z"/><path class="cls-5" d="M167.19,391.4c4.2,13.75,2.09,27.82,2,41.77-.05,5.29-3.88,7.43-8.93,7.41-26.6-3.92-49.31-26.83-54.86-54.87-1.58-8-.93-16-1.83-24-.48-4.19,2.46-6,6.48-6.29,14.82-1.14,27.38,4,38.16,13.82A127.85,127.85,0,0,1,167.19,391.4Z"/><path class="cls-5" d="M202.79,444.08c-1.32-15.41-3-30.83,1.09-46.12,7.3-10,13.71-20.68,23.18-29,10-8.73,21.7-13.22,34.62-15.13,3.19-.48,5.46.31,5.47,3.89,0,12.58,1.1,25.24-1.94,37.65s-10.33,21.94-20.61,29.33A120.88,120.88,0,0,1,202.79,444.08Z"/><path class="cls-6" d="M236.11,18.12c-4.63,4.8-10.87,6.87-16.68,9.59-15.78,7.39-31.66,14.58-47.49,21.89a21.45,21.45,0,0,1-7.06,2.07c-18-7.12-35.88-14.6-53.36-23-1.57-.76-3.13-1.41-3.78-3.2,17.58-7.25,35.41-13.76,53.44-19.79a51.09,51.09,0,0,1,29.71-1.14C206.15,8.44,221.39,12.37,236.11,18.12Z"/><text class="cls-7" transform="translate(108.78 206.75)">4.4</text></g></g></g></g></svg>