<svg xmlns="http://www.w3.org/2000/svg" viewBox="0 0 363.99 584.49"><defs><style>.cls-1{fill:#fefefe;}.cls-2{fill:#f15c5b;}.cls-3{fill:#bf4748;}.cls-4{fill:#5c8a40;}.cls-5{fill:#962c29;}.cls-6{fill:#4c6d35;}.cls-7{fill:#782421;}.cls-8{font-size:100px;fill:#fff;font-family:Lato-Black, Lato;font-weight:800;}</style></defs><g id="Layer_2" data-name="Layer 2"><g id="Layer_1-2" data-name="Layer 1"><path class="cls-1" d="M236.16,18.12c-14.71-5.74-30-9.67-45.22-13.58a51.2,51.2,0,0,0-29.71,1.14c-18,6-35.87,12.55-53.44,19.79a72.78,72.78,0,0,1-7.4-.52c-16-2.71-31.92-5.52-47.88-8.3-2-.36-4.39-1.4-6,.38-1.78,2-.27,4.35.47,6.46C49,29.07,51,34.63,53,40.2c-.4,4.45-3.93,3.53-6.53,3.52-13.85,0-27.1-4.25-40.7-6.07-1.79-.24-3.87-1.56-5.25.55s.36,3.61,1.32,5.18c10.35,16.8,16.61,35.21,21.12,54.26,7.42,31.38,8.31,63.58,11.46,95.49,2.15,21.71,8.76,41.92,21.61,59.68,20.58,28.45,49,46.07,81.63,57.35,8.82,3,18,5.19,27,7.71,5,1.42,7.2,4.48,6.06,9.81a48.16,48.16,0,0,0,0,18.8c-1.64,12.84-.5,25.75-1.09,38.62-.11,2.29,1,5.14-2.32,6.3a127.89,127.89,0,0,0-19-22.13c-10.78-9.83-23.34-15-38.16-13.82-4,.32-7,2.1-6.49,6.3.91,8,.26,16,1.83,24,5.55,28.05,28.27,51,54.87,54.87,8.63,5,10.21,13.37,10.26,22.19.17,31.13.1,62.26.21,93.39a121.42,121.42,0,0,0,.82,14.27c1.1,9.18,3.38,11.5,12.54,13.68,5.67,1.35,10.24-.93,12.5-6.28,1.67-4,1.74-8.17,1.74-12.39,0-31.13-.21-62.26.12-93.38.1-9.43-.41-19.18,4.36-28a120.72,120.72,0,0,0,41.8-19.37c10.28-7.39,17.58-16.88,20.62-29.33s2-25.06,1.94-37.64c0-3.59-2.28-4.37-5.48-3.9-12.91,1.92-24.63,6.4-34.61,15.14-9.47,8.29-15.89,19-23.18,29-4.53-1.3-3-5.24-3.23-8.11-1.87-21.43-3.43-42.9-7.25-64.11.2-2.89,2.17-4.16,4.55-5.24a122.21,122.21,0,0,1,18.58-7.11c14.17-3.82,27.61-9.47,40.77-15.86,2.75-1.34,5.51-2.66,6.44-6,5.21-1.26,8-5.58,11.42-9.08,5.08-5.13,7.62-12.4,14.15-16.31,14.43-8.63,24.21-21.26,31-36.45,10.4-23.15,11.71-47.61,10.41-72.4-2.12-40.79,7.35-78.35,30.61-112.18,1.11-1.62,3.48-3.25,2.22-5.43-1.07-1.83-3.54-.85-5.33-.73q-26.82,1.89-53.61,4c-2.43.19-5,1.18-6.67-1.61L316.81,0C297.94,4.63,280.47,9,263,13.19,254.12,15.31,245.47,18.56,236.16,18.12Z"/><path class="cls-2" d="M263.79,291.55c-.93,3.32-3.69,4.64-6.44,6-13.16,6.39-26.6,12-40.77,15.86A122.21,122.21,0,0,0,198,320.5c-2.38,1.08-4.35,2.35-4.55,5.24-3.5-1.4-7.29-1.73-10.65-3.85-6.74-4.24-10.63-1.86-11,6-.28,6.2,1.3,12.55-1.18,18.61a48.16,48.16,0,0,1,0-18.8c1.14-5.33-1-8.39-6.06-9.81-9-2.52-18.15-4.66-27-7.71C105,298.88,76.57,281.26,56,252.81c-12.85-17.76-19.46-38-21.61-59.68-3.15-31.91-4-64.11-11.46-95.49-4.51-19-10.77-37.46-21.12-54.26C.84,41.81-.83,40.19.48,38.2s3.46-.79,5.25-.55c13.6,1.82,26.85,6,40.7,6.07,2.6,0,6.13.93,6.53-3.52,2,4.15,6.12,5,9.87,6.13C82.12,52.09,100.06,61.11,118,70c20,9.89,38.76,22,55.09,37.51,16.93,16.1,32.12,33.49,43.71,54C231,186.61,238.19,214,242.94,242.16a219.19,219.19,0,0,0,10.83,40.9C255.54,287.74,257.81,291.85,263.79,291.55Z"/><path class="cls-3" d="M263.79,291.55c-6,.3-8.25-3.81-10-8.49a219.19,219.19,0,0,1-10.83-40.9C238.19,214,231,186.61,216.76,161.44c-11.59-20.48-26.78-37.87-43.71-54C156.72,92,138,79.85,118,70c-17.9-8.85-35.84-17.87-55.13-23.63-3.75-1.12-7.89-2-9.87-6.13C51,34.63,49,29.07,47,23.49c-.74-2.11-2.25-4.44-.47-6.46,1.57-1.78,3.92-.74,6-.38,16,2.78,31.91,5.59,47.88,8.3a72.78,72.78,0,0,0,7.4.52c.65,1.79,2.21,2.44,3.78,3.2,17.47,8.4,35.34,15.88,53.36,23,6.34,3.48,12.87,6.81,18.33,11.53,10.08,8.71,20.83,9.41,33.07,5.3,18.61-6.24,37.57-11.41,56.2-17.55,8.61-2.84,18-3.7,25.49-9.62,1.69,2.79,4.24,1.8,6.67,1.61q26.81-2,53.61-4c1.79-.12,4.26-1.1,5.33.73,1.26,2.18-1.11,3.81-2.22,5.43C338.15,79,328.68,116.52,330.8,157.31c1.3,24.79,0,49.25-10.41,72.4-6.82,15.19-16.6,27.82-31,36.45-6.53,3.91-9.07,11.18-14.15,16.31C271.75,286,269,290.29,263.79,291.55Z"/><path class="cls-4" d="M170.4,348.69c-.19-5.74-2.29-17.41,1.45-23.88.36-8,4.21-7.16,11-2.92,3.36,2.12,7.15,2.45,10.65,3.85,3.82,21.21,5.38,42.68,7.25,64.11.26,2.87-1.3,6.81,3.23,8.11-4.06,15.29-2.41,30.71-1.09,46.13-4.77,8.79-4.26,18.54-4.36,28-.33,31.12-.13,62.25-.12,93.38,0,4.22-.07,8.42-1.74,12.39-2.26,5.35-6.83,7.63-12.5,6.28-9.82-2.34-11.73-4.83-12.77-15.78-.39-4.15-.57-8.32-.59-12.48-.11-31,0-62.05-.21-93.08-.05-8.82-1.63-17.21-10.26-22.19,5.05,0,8.88-2.11,8.92-7.41.12-13.94,2.23-28-2-41.77,3.31-1.16,2.21-4,2.32-6.3C170.15,372.23,168.76,361.53,170.4,348.69Z"/><path class="cls-5" d="M298,41.33c-7.46,5.92-16.88,6.78-25.49,9.62-18.63,6.14-37.59,11.31-56.2,17.55-12.24,4.11-23,3.41-33.07-5.3-5.46-4.72-12-8.05-18.33-11.53A21.11,21.11,0,0,0,172,49.6c15.83-7.31,31.7-14.5,47.49-21.89,5.81-2.72,12-4.79,16.68-9.59,9.31.44,18-2.81,26.79-4.93C280.47,9,297.94,4.63,316.81,0Z"/><path class="cls-6" d="M167.24,391.4c4.2,13.75,2.09,27.83,2,41.77,0,5.3-3.87,7.43-8.92,7.41-26.6-3.92-49.32-26.82-54.87-54.87-1.57-8-.92-16-1.83-24-.47-4.2,2.46-6,6.49-6.3,14.82-1.14,27.38,4,38.16,13.82A127.89,127.89,0,0,1,167.24,391.4Z"/><path class="cls-6" d="M202.84,444.09c-1.32-15.42-3-30.84,1.09-46.13,7.29-10,13.71-20.68,23.18-29,10-8.74,21.7-13.22,34.61-15.14,3.2-.47,5.47.31,5.48,3.9,0,12.58,1.1,25.23-1.94,37.64s-10.34,21.94-20.62,29.33A120.72,120.72,0,0,1,202.84,444.09Z"/><path class="cls-7" d="M236.16,18.12c-4.64,4.8-10.87,6.87-16.68,9.59C203.69,35.1,187.82,42.29,172,49.6a21.11,21.11,0,0,1-7.06,2.07c-18-7.12-35.89-14.6-53.36-23-1.57-.76-3.13-1.41-3.78-3.2,17.57-7.24,35.41-13.76,53.44-19.79a51.2,51.2,0,0,1,29.71-1.14C206.2,8.45,221.45,12.38,236.16,18.12Z"/><text class="cls-8" transform="translate(108.83 206.76)">4.4</text></g></g></svg>