<svg xmlns="http://www.w3.org/2000/svg" viewBox="0 0 425.9 299.79"><defs><style>.cls-1{fill:#010101;}</style></defs><g id="Layer_2" data-name="Layer 2"><g id="Layer_1-2" data-name="Layer 1"><path class="cls-1" d="M180,27.89a15.05,15.05,0,0,1,.1,7.68c-1.73,6.32-6.32,12-10.18,17.18A169.4,169.4,0,0,1,156.05,69c-5.5,5.72-14.24,17.55-23.3,16.84-5.3-.41-1-6.17.52-8.36,9.58-13.62,20.85-25.38,25.73-41.9,1.35-4.57,2.39-10.34-.45-14.58-4.14-6.21-13.21-5.05-19.43-3.56a75.21,75.21,0,0,0-28.19,13.51l3.95-2.78c-8.64,7.13-17,15.14-22.65,24.89A48.72,48.72,0,0,0,86.69,68.1c-2.25,12.49.49,25.3,3.9,37.31a168.79,168.79,0,0,0,18.8,42.89c6.84,11,12.15,23.21,11.91,36.39-.25,12.8-4.63,25.38-11.4,36.16a75.9,75.9,0,0,1-20.31,21.71c-18.41,13-44.56,18.32-66.11,10.82-9.36-3.26-17.35-9.2-21-18.63-3.23-8.26-2.92-17.54-1-26.07,3.28-14.6,11.34-27,21.87-37.38,3.13-3.11,9.86-10.19,15-7.79,7,3.28-1.41,14.92-3.61,18.82-7.79,13.85-19.53,53.63,5,57.91,21.5,3.75,46.21-17,52.1-36.65,3.75-12.44.36-25.4-3.89-37.25-4.75-13.23-10.28-26.16-15.94-39C66.23,114.25,60.49,101,57.63,86.94c-4.52-22.19,2.84-44.85,18.8-60.77a107.8,107.8,0,0,1,16-13c15.34-10.3,33.83-16.13,52.16-11.66,7.66,1.86,15.4,4.38,22.09,8.65C172.13,13.63,178.15,20.7,180,27.89Z"/><path class="cls-1" d="M355.88,180.81c-7.7,13.12-23.38,24.81-37.92,28.8-1.71.57-8,.29-9.41,1.71-1.71,1.43-2,10.84-2.28,13.12-.86,4-1.72,8-2.85,12-4.57,16-8.27,34.51-17.4,48.48-8,12.26-21.95,20.53-35.35,10.26-11.7-8.84-11.7-28.23-10.84-41.34,1.71-31.94,14.26-61,22.81-91,8-28.23,21.1-54.75,34.79-81a383.37,383.37,0,0,1,25.09-43.05c6.84-9.7,18-28.52,31.08-29.94C379.55,6,371.28,45.09,365.86,58.2,355.31,83,340.2,107,323.66,128.35c-10,12.83-20.53,25.37-31.37,37.92-3.42,3.71-6.84,7.7-10.55,11.41-2.85,3.13-3.42,4.27-5.13,8.55-1.42,4.28-2.85,8.27-4,12.26-5.42,15.68-10.27,31.37-14.26,47.62-1.7,7.36-4.21,14.54-5.27,22-.62,4.38-1.09,9.06.39,13.32a9.82,9.82,0,0,0,3.47,4.89c3.7,2.62,7.74.61,10.71-2.1,7.72-7,12.64-17.65,16.77-27.06.45-1,.89-2.06,1.31-3.11A186.81,186.81,0,0,0,297.43,217c.57-2.85,2-7.12,1.42-10-.57-3.43-3.42-6.85-4-10.27a48.32,48.32,0,0,1,0-20.25c1.71-6.55,7.13-12,12-4,1.71,3.43,2.28,7.42,2.85,11.12.28,2.86-.86,8.84.28,11.41,1.71,4,8.56,1.71,12,0,13.69-5.42,24.52-17.68,33.93-28.51,1.42-1.72,13.4-20.25,15.68-13.12v.28C374.13,163.71,360.44,173.68,355.88,180.81ZM288.3,154.87c18-20.25,34.5-41.92,48.19-65,4-6.57,31.36-61,20.53-64.16-3.71-1.14-7.13,4.56-9.12,7.13-7.7,10-13.41,21.38-19.39,32.5-12,22.53-22.24,46.19-32.22,69.86.28-.28,0,.85-1.71,4.56v-.28c0,.28-.29.57-.29.85Zm8-19.68-.86,2.28C295.72,136.62,296.29,135.48,296.29,135.19Z"/><path class="cls-1" d="M418.9,169.12c-4.85,7.13-9.41,14-14.83,20.82-5.7,7.69-12.83,20-22.81,22.24-9.22,2.1-16.71-5.5-21.67-12.26-3.14-4.28-7.13-8-8.27-13.12-1-4.46.59-9.34,1.32-13.75,1.28-7.67,2.5-15.43,5.24-22.75,2.28-6,3.42-12.83,9.12-16.25,4.28-2.85,9.7-2.28,15.11,0,2.76,1.16,6.22,2.36,8.11,4.82,2.3,3-2.47,9.23-4,11.76-2.52,4.05-5.28,8-7.27,12.31-2.09,4.55-3.6,9.33-5.3,14-1.54,4.25-6.3,16-.33,19,5.61,2.8,14-6.05,17.69-9.39,7.7-6.91,13.72-15.41,19.68-23.8,2.49-3.5,4.9-7.73,8.53-10.16,2-1.42,6-2.56,6.56,1.14C426.88,159.14,421.75,165.42,418.9,169.12Zm-48.47,16.25-.57,2.29.57-1.72v-.28C370.71,185.09,370.71,185.09,370.43,185.37Zm10.74-69.45a3.86,3.86,0,0,1-2.54-4.44c.59-2.82,1.17-5.65,2-8.38,2.18-7,4.59-13.86,7.09-20.72,1.06-2.9,2.34-7.81,4-8a14.82,14.82,0,0,1,10.51,3.07c2,1.79,3.57,7.18,2.36,9.16-5.87,9.58-12.55,18.67-19,27.88a3.85,3.85,0,0,1-4.38,1.43Z"/><path class="cls-1" d="M245.16,166.49c-1.4.25-2.79.54-4.17.9-2.44.63-3.88,2.8-5.17,4.79-1.73,2.68-3.25,5.48-4.94,8.19A112.87,112.87,0,0,1,219,195.9a159.69,159.69,0,0,1-13.85,13.56c-4.7,4.09-9.73,8.2-15.36,11a28.62,28.62,0,0,1-17.07,2.72,33.53,33.53,0,0,1-15.88-7,39.89,39.89,0,0,1-10.6-13.31,37.46,37.46,0,0,1-4-18c.25-6.31,2.67-12,5.47-17.54s5.38-11.38,8.46-16.86a62.33,62.33,0,0,1,11.23-14.61c4.34-4.15,9.43-8.06,15.11-10.15,2.16-.8,4.72-.87,6.72-2.06,2.36-1.41,3-4.78,3.85-7.2a51,51,0,0,1,9.4-15.93c3.62-4.37,8.14-8.9,13.71-10.61,5.88-1.8,11.94.07,17,3.12,8.1,4.84,15.2,12.18,16.93,21.76a24.57,24.57,0,0,1,.39,3.63c.32,8.63-1.78,17.18-3.93,25.48-.61,2.38-1.23,4.76-2,7.1-.66,2.14-2,4.51-2,6.79,1.44.27,3.14-.32,4.54-.65,1.66-.38,3.33-.73,5-1.08q5-1,10.06-2.12c1.62-.35,3.26-.61,4.86-1,1.44-.37,3-1.33,4.5-1.23,2.23.15,3.33,3.21,2.92,5.12-.51,2.38-3,3.81-5,4.75a39.13,39.13,0,0,1-9.07,2.69C255.38,165.21,250.23,165.59,245.16,166.49Zm-26.82.73c-12.55-1.71-28-7.13-31.08-21.38-2,2.28-6,9.12-10.27,17.68,0,0-26.23,50.47-2.56,47h.28C194.67,206.86,210.07,183.76,218.34,167.22ZM232,103.07c-2.79-4.33-7.28-3.16-10.87-.55a42.72,42.72,0,0,0-12.84,14.67A67.56,67.56,0,0,0,203.5,130c-1.2,4.26-2.61,8.63-3.13,13-.57,4.84-1.14,10.26,2.85,13.68,2.28,2,6,2.57,9.13,2.86,1.71.28,5.42.85,7.13.28,2.85-.57,2,.28,3.42-2.57,4.28-7.12,6-17.67,8-25.66C232.31,124.46,236.3,110.48,232,103.07Z"/></g></g></svg>