<?xml version="1.0" encoding="UTF-8" standalone="no"?>
<svg
   xmlns:dc="http://purl.org/dc/elements/1.1/"
   xmlns:cc="http://creativecommons.org/ns#"
   xmlns:rdf="http://www.w3.org/1999/02/22-rdf-syntax-ns#"
   xmlns:svg="http://www.w3.org/2000/svg"
   xmlns="http://www.w3.org/2000/svg"
   xmlns:sodipodi="http://sodipodi.sourceforge.net/DTD/sodipodi-0.dtd"
   xmlns:inkscape="http://www.inkscape.org/namespaces/inkscape"
   width="30mm"
   height="15mm"
   viewBox="0 0 30 15"
   version="1.1"
   id="svg126"
   inkscape:version="1.0 (4035a4fb49, 2020-05-01)"
   sodipodi:docname="Nombre.svg">
  <defs
     id="defs120" />
  <sodipodi:namedview
     id="base"
     pagecolor="#ffffff"
     bordercolor="#666666"
     borderopacity="1.0"
     inkscape:pageopacity="0.0"
     inkscape:pageshadow="2"
     inkscape:zoom="11.2"
     inkscape:cx="67.915635"
     inkscape:cy="26.069444"
     inkscape:document-units="mm"
     inkscape:current-layer="text42"
     inkscape:document-rotation="0"
     showgrid="false"
     inkscape:window-width="1918"
     inkscape:window-height="917"
     inkscape:window-x="-8"
     inkscape:window-y="-8"
     inkscape:window-maximized="1" />
  <metadata
     id="metadata123">
    <rdf:RDF>
      <cc:Work
         rdf:about="">
        <dc:format>image/svg+xml</dc:format>
        <dc:type
           rdf:resource="http://purl.org/dc/dcmitype/StillImage" />
        <dc:title />
      </cc:Work>
    </rdf:RDF>
  </metadata>
  <g
     inkscape:label="Capa 1"
     inkscape:groupmode="layer"
     id="layer1">
    <g
       transform="matrix(0.24667721,0,0,0.24667721,21.226145,20.053092)"
       aria-label="Sofi Recomienda"
       id="text42"
       style="font-style:normal;font-variant:normal;font-weight:normal;font-stretch:normal;font-size:33.2125px;line-height:1.25;font-family:'Kaushan Script';-inkscape-font-specification:'Kaushan Script, Normal';font-variant-ligatures:normal;font-variant-caps:normal;font-variant-numeric:normal;font-variant-east-asian:normal;fill:#fed136;fill-opacity:1;stroke:none;stroke-width:0.889621">
      <path
         d="m -31.579527,-63.75931 q 0.0996,0.564612 0.13285,0.7971 0.0664,0.199275 0.0664,0.564612 0,1.096013 -0.49818,2.059176 -0.46498,0.92995 -1.29529,1.3285 -0.66425,-0.896738 -1.62741,-1.527775 -0.96317,-0.664251 -2.1256,-1.062801 -1.12923,-0.431762 -2.35809,-0.631037 -1.22886,-0.199275 -2.3913,-0.199275 -1.16244,0 -2.19203,0.199275 -0.99637,0.166062 -1.79347,0.498187 -0.76389,0.298913 -1.22886,0.763888 -0.43177,0.464975 -0.43177,1.0628 0.0996,0.730675 0.89674,1.494563 0.7971,0.730675 1.95954,1.46135 1.16244,0.697463 2.55736,1.394925 1.42814,0.697463 2.78985,1.3285 1.69384,0.7971 2.9227,1.494563 1.22886,0.66425 2.02596,1.494562 0.7971,0.7971 1.19565,1.826688 0.39855,1.029587 0.39855,2.490937 0,1.693838 -0.56461,3.188401 -0.56461,1.46135 -1.66062,2.557362 -1.0628,1.096013 -2.59058,1.693838 -1.52777,0.631037 -3.42089,0.631037 -1.8599,0 -4.01871,-0.564612 -2.15882,-0.564613 -4.05193,-1.560988 -1.859899,-0.963162 -3.121969,-2.225237 -1.22887,-1.295288 -1.22887,-2.723425 0,-0.66425 0.36534,-1.693838 0.39855,-1.029588 1.39493,-2.158813 0.0996,0.996375 1.062799,2.358088 0.99637,1.361713 2.95591,2.52415 1.82669,1.0628 3.75301,1.560988 1.95954,0.464975 3.65338,0.464975 1.8599,0 3.02233,-0.464975 1.16244,-0.464975 1.82669,-1.096013 0.66425,-0.66425 0.92995,-1.3285 0.2657,-0.66425 0.29891,-1.0628 -0.0332,-0.66425 -0.63103,-1.262075 -0.56462,-0.631038 -1.56099,-1.19565 -0.96316,-0.597825 -2.25845,-1.19565 -1.29529,-0.597825 -2.69021,-1.19565 -2.09239,-0.92995 -3.62017,-1.72705 -1.49456,-0.830313 -2.49093,-1.660625 -0.96317,-0.863525 -1.42814,-1.793475 -0.43176,-0.929951 -0.43176,-2.125601 0,-1.8599 1.12922,-3.520525 1.12923,-1.660625 3.25483,-2.52415 1.0628,-0.464975 2.25845,-0.66425 1.22886,-0.199275 2.3913,-0.199275 2.19202,0 4.28441,0.597825 2.09239,0.597825 4.18477,1.527775 z"
         style="font-style:normal;font-variant:normal;font-weight:normal;font-stretch:normal;font-size:33.2125px;font-family:'Kaushan Script';-inkscape-font-specification:'Kaushan Script, Normal';font-variant-ligatures:normal;font-variant-caps:normal;font-variant-numeric:normal;font-variant-east-asian:normal;opacity:1;mix-blend-mode:hard-light;fill:#c79c2a;fill-opacity:1;stroke:#000011;stroke-width:1.29318797;stroke-linejoin:bevel;stroke-miterlimit:4;stroke-dasharray:none;stroke-opacity:1"
         id="path891" />
      <path
         d="m -26.354786,-40.211646 q -1.89311,-0.199275 -3.02233,-1.660625 -1.12923,-1.46135 -1.12923,-3.7198 0,-1.328501 0.39855,-2.756638 0.39855,-1.428138 1.12923,-2.756638 0.73067,-1.361712 1.72705,-2.557362 0.99637,-1.19565 2.15881,-2.059175 1.82669,-1.361713 3.42089,-1.361713 1.0628,0.564613 2.09238,2.358088 0.16607,0 0.29892,0 0.13285,-0.03321 0.29891,-0.03321 1.76026,0 1.76026,3.121975 0,2.092388 -0.69746,3.9855 -0.66425,1.859901 -1.89311,3.387676 -1.19565,1.527775 -2.88949,2.590575 -1.66063,1.029587 -3.65338,1.46135 z m 1.69384,-10.461938 q -0.56461,0.763887 -1.0628,1.660625 -0.49819,0.896737 -0.86352,1.826687 -0.36534,0.896738 -0.56462,1.760263 -0.19927,0.830313 -0.19927,1.494563 0,0.7971 0.2657,1.527775 0.2657,0.730675 0.59782,0.830312 1.49457,-0.332125 2.72343,-1.228862 1.26207,-0.92995 2.15881,-2.291663 0.92995,-1.361712 1.42814,-3.088763 0.5314,-1.72705 0.5314,-3.686587 0,-0.863525 -0.0996,-1.361713 -0.0996,-0.498187 -0.33213,-0.863525 -1.46135,0.431763 -2.62378,1.394925 -1.12923,0.963163 -1.95954,2.025963 z"
         style="font-style:normal;font-variant:normal;font-weight:normal;font-stretch:normal;font-size:33.2125px;font-family:'Kaushan Script';-inkscape-font-specification:'Kaushan Script, Normal';font-variant-ligatures:normal;font-variant-caps:normal;font-variant-numeric:normal;font-variant-east-asian:normal;opacity:1;mix-blend-mode:hard-light;fill:#c79c2a;fill-opacity:1;stroke:#000011;stroke-width:1.29318797;stroke-linejoin:bevel;stroke-miterlimit:4;stroke-dasharray:none;stroke-opacity:1"
         id="path893" />
      <path
         d="m -1.784796,-55.954372 q 0.16606,0 0.69746,0.03321 0.56461999,0 1.26207999,0.03321 0.69746,0 1.39492001,0.06643 0.73068,0.06643 1.22887,0.166063 0.33212,0.365337 0.49818,0.697462 -0.76388,0.996375 -1.46135,2.25845 -0.69746,1.262075 -1.29528001,2.623788 -0.59783,1.3285 -1.09602,2.657 -0.46496999,1.295288 -0.83030999,2.424513 -0.33212,1.096012 -0.56461,1.926325 -0.19928,0.830312 -0.23249,1.19565 -0.0664,0.597825 -0.0664,0.830312 0.0332,0.2657 -0.13285,0.2657 -0.13285,0 -0.5314,-0.166062 -0.39855,-0.166063 -0.83031,-0.498188 -0.39855,-0.365337 -0.73068,-0.896737 -0.33212,-0.5314 -0.33212,-1.262075 0,-0.92995 0.2657,-2.324875 0.2657,-1.428138 0.69746,-2.922701 0.43176,-1.494562 0.99638,-2.856275 0.56461,-1.394925 1.16243,-2.25845 -1.0628,-0.06643 -2.1256,-0.09964 -1.0628,-0.06643 -2.1256,-0.06643 -0.36533,0 -0.73067,0 -0.36534,0 -0.73068,0.03321 -1.66062,5.214363 -2.98912,9.100226 -1.29529,3.885862 -2.42451,6.6425 -1.09602,2.78985 -2.1256,4.550113 -0.99638,1.793475 -2.02597,2.78985 -0.99637,1.029587 -2.1256,1.428137 -1.12922,0.39855 -2.49093,0.39855 -2.35809,0 -4.01872,-1.5942 0,-0.232487 0.13285,-0.498187 0.13285,-0.2657 0.29892,-0.365338 0.46497,0.564613 1.22886,0.863525 0.76389,0.332125 1.5942,0.332125 0.86352,0 1.5942,-0.39855 0.69746,-0.365337 1.39492,-1.262075 0.66425,-0.896737 1.3285,-2.358087 0.69747,-1.46135 1.49457,-3.620163 1.16243,-3.1884 2.3913,-7.240325 1.26207,-4.051926 2.55736,-8.568826 -1.26208,0.06642 -2.09239,0.166063 -0.83031,0.09964 -1.09601,0.13285 -0.13285,-0.13285 -0.23249,-0.365338 -0.0664,-0.232487 -0.0664,-0.431762 0.5314,-0.166063 1.49456,-0.365338 0.99638,-0.232487 2.3913,-0.464975 0.7971,-2.3913 1.76027,-4.317625 0.96316,-1.959538 2.05917,-3.321251 1.12923,-1.361712 2.3913,-2.092387 1.29529,-0.730675 2.78985,-0.730675 0.5314,0 1.16244,0.232487 0.66424999,0.199275 1.26206999,0.464975 0.63104,0.232488 1.12923001,0.464975 0.49819,0.199275 0.76389,0.199275 0.39855,-0.232487 1.09601,-0.39855 0.73067,-0.199275 1.22886,-0.199275 0.39855,0 1.02959,0.431763 -0.29891,0.464975 -0.59783,1.262075 -0.29891,0.7971 -0.46497,1.560987 -0.83031,2.457726 -1.76026,3.188401 -0.16607,0 -0.29892,-0.199275 -0.0996,-0.232488 -0.0996,-0.763888 0,-0.365337 -0.16606,-0.66425 -0.16606,-0.298912 -0.39855,-0.597825 -0.19927,-0.298913 -0.36534,-0.597825 -0.16606,-0.298913 -0.16606,-0.631038 0,-0.199275 0.0332,-0.464975 0.0332,-0.298912 0.13285,-0.963162 -0.39855001,-0.03321 -0.79710001,-0.03321 -0.36534,-0.03321 -0.73067,-0.03321 -1.29528999,0 -2.32487999,0.631037 -0.99637,0.631038 -1.79347,1.72705 -0.7971,1.062801 -1.42814,2.457726 -0.63104,1.361713 -1.12923,2.856275 1.16244,-0.06643 2.3913,-0.13285 1.26208,-0.06642 2.69022,-0.06642 z"
         style="font-style:normal;font-variant:normal;font-weight:normal;font-stretch:normal;font-size:33.2125px;font-family:'Kaushan Script';-inkscape-font-specification:'Kaushan Script, Normal';font-variant-ligatures:normal;font-variant-caps:normal;font-variant-numeric:normal;font-variant-east-asian:normal;opacity:1;mix-blend-mode:hard-light;fill:#c79c2a;fill-opacity:1;stroke:#000011;stroke-width:1.29318797;stroke-linejoin:bevel;stroke-miterlimit:4;stroke-dasharray:none;stroke-opacity:1"
         id="path895" />
    </g>
  </g>
</svg>
