<?xml version="1.0" encoding="utf-8"?>
<!-- Generator: Adobe Illustrator 25.2.1, SVG Export Plug-In . SVG Version: 6.00 Build 0)  -->
<svg version="1.1" id="Layer_1" xmlns="http://www.w3.org/2000/svg" xmlns:xlink="http://www.w3.org/1999/xlink" x="0px" y="0px"
	 viewBox="0 0 301.8 302.7" style="enable-background:new 0 0 301.8 302.7;" xml:space="preserve">
<style type="text/css">
	.st0{fill:#A92923;}
	.st1{fill:#70BF44;}
	.st2{fill:#19B24B;}
</style>
<g id="Layer_2_1_">
	<g id="Layer_1-2">
		<path d="M141.8,221.6v-50.9c-7.6-1.3-15-2.1-22.3-3.8c-13.4-3.3-25.1-10-35.4-19.2c-11.5-10.3-19.9-23.8-24-38.7
			c-1.9-6.6-3-13.5-3.2-20.4c-0.4-26.2-0.1-52.4-0.2-78.5c0-3.4,0.6-6.5,3.9-8.4c3.3-2.2,7.7-2,10.8,0.5
			c12.7,9.2,25.4,18.5,38.1,27.7c1.7,1.2,3.5,2.4,5.6,3.8c6.5-7,12.9-14,19.4-21c3.4-3.8,7-7.3,10.8-10.7c3.6-3.1,8.7-2.5,12.3,1.2
			c9,9.3,17.9,18.8,26.8,28.2c0.6,0.7,1.2,1.4,2.1,2.3l21-15.1c7.9-5.7,15.8-11.3,23.7-17c3.4-2.5,6.6-1.5,9.9,0.1
			c2.8,1.5,3.8,4.1,3.8,7c0.1,4.5,0,9,0,13.5c0,22.2,0.1,44.5,0,66.8c-0.1,14.4-4.5,27.7-12.1,39.8c-3.7,5.9-7.7,11.9-12.7,16.7
			c-11.3,10.9-24.7,18.7-40.2,22.1c-6.4,1.4-13,1.9-19.9,2.9v50.9c3.6-4,7.1-7.9,10.6-11.6c12.2-12.9,26.9-22.3,43.1-29.2
			c10.7-4.4,21.8-7.4,33.2-8.9c15.5-2.2,31-0.9,46.5-1.2c4.3-0.1,8.6,4.4,8.1,9.1c-0.8,8.2-1.6,16.5-3.5,24.5
			c-3.2,13.3-8.8,26-16.5,37.3c-5.2,7.6-10.6,15.2-17,21.6c-18.6,18.6-40.8,31.1-66.6,36.6c-8.8,1.7-17.8,2.7-26.8,2.9
			c-13,0.5-26.1,0.2-39.1,0.1c-18.5,0-36.9-3.8-53.8-11.3C66.8,286,55.9,279.2,46.1,271c-15.9-13-27.2-29.1-35.6-47.5
			c-5-10.9-8.3-22.5-9.7-34.4c-0.3-2.9-0.4-5.9-0.7-8.9c-0.5-5,4.6-10.3,10-10c8.7,0.5,17.5,0.2,26.3,0.1c12.4,0,24.7,1.6,36.7,5
			c13.7,3.8,26.8,9.8,38.5,17.9c11.1,7.4,21,16.6,29.1,27.2C141,220.9,141.4,221.3,141.8,221.6z M117.4,58.2L74.8,27.4
			c0,11.9-0.2,23.1,0,34.3c0.2,11.6,0.3,23.2,1.5,34.6c1.7,16.9,11,30,23.7,40.6c13,10.8,28.6,14.8,45.2,14.8
			c5.8,0,11.7-0.6,17.5-0.6c6.9,0.1,13.8-1.2,20.4-3.6c15.7-5.8,28.7-17.1,36.5-31.9c5.4-9.9,7.4-20.7,7.5-31.7
			c0.2-17.4,0.1-34.8,0.1-52.2v-4.3l-42.6,30.8L151,22.7L117.4,58.2z M19.5,189.8c12.1,67.3,76.2,99.7,122.7,93.6
			c-0.3-5.9-0.8-11.8-1-17.8c-0.4-7.9-2.8-15.7-7.1-22.3c-6.6-10.8-14.6-20.5-24.8-28c-7.6-5.9-15.7-11.1-24.2-15.5
			c-11.7-6-24.6-9.4-37.7-9.9C38.2,189.5,28.9,189.8,19.5,189.8z M160.1,283.6c56.3,5.5,112.9-35.4,122.3-94.5
			c-12.8,0.2-25.6-0.4-38.3,1.9c-14.6,2.7-28.4,8.2-40.9,16.2c-12.1,7.6-21.7,17.8-30.6,28.9C161.1,250.3,159.1,266.4,160.1,283.6z"
			/>
		<path class="st0" d="M117.4,58.2l33.5-35.5l33.6,35.5l42.6-30.8v4.3c0,17.4,0.2,34.8-0.1,52.2c-0.1,11.1-2.1,21.8-7.5,31.7
			c-7.8,14.8-20.8,26.1-36.5,31.9c-6.5,2.4-13.4,3.6-20.3,3.6c-5.8,0-11.7,0.6-17.5,0.6c-16.6-0.1-32.2-4-45.2-14.8
			c-12.7-10.6-22-23.7-23.7-40.6c-1.2-11.5-1.2-23.1-1.5-34.6c-0.2-11.2,0-22.3,0-34.3L117.4,58.2z"/>
		<path class="st1" d="M19.5,189.8c9.4,0,18.7-0.2,27.9,0.1c13.1,0.5,26,3.9,37.7,9.9c8.5,4.5,16.6,9.6,24.2,15.5
			c10.1,7.6,18.1,17.3,24.8,28c4.3,6.7,6.8,14.4,7.1,22.3c0.2,5.9,0.6,11.9,1,17.8C95.7,289.4,31.6,257.1,19.5,189.8z"/>
		<path class="st2" d="M160.1,283.6c-1-17.1,1-33.3,12.4-47.4c9-11.1,18.6-21.3,30.6-28.9c12.5-8,26.4-13.5,40.9-16.2
			c12.8-2.3,25.5-1.7,38.3-1.9C273,248.2,216.4,289,160.1,283.6z"/>
	</g>
</g>
</svg>
