<svg xmlns="http://www.w3.org/2000/svg" viewBox="0 0 301.78 302.73"><defs><style>.cls-1{fill:#fff;}</style></defs><g id="Layer_2" data-name="Layer 2"><g id="Layer_1-2" data-name="Layer 1"><path d="M141.82,221.62V170.68c-7.59-1.27-15-2.05-22.26-3.81-13.43-3.26-25.11-10-35.41-19.23a80.87,80.87,0,0,1-24-38.68A79.33,79.33,0,0,1,57,88.59c-.37-26.18-.14-52.36-.16-78.54,0-3.44.59-6.48,3.88-8.39a9.2,9.2,0,0,1,10.83.48Q90.62,16,109.69,29.86c1.72,1.25,3.53,2.39,5.62,3.8,6.48-7,12.87-14,19.38-20.95A141.71,141.71,0,0,1,145.49,2c3.65-3.13,8.7-2.49,12.3,1.25,9,9.34,17.89,18.78,26.83,28.18.63.67,1.23,1.37,2.07,2.3l21-15.15c7.89-5.68,15.81-11.33,23.68-17,3.37-2.45,6.62-1.54,9.87.15,2.83,1.47,3.78,4.06,3.84,7,.08,4.5,0,9,0,13.5,0,22.25.1,44.51,0,66.77-.09,14.4-4.49,27.67-12.06,39.77-3.71,5.92-7.73,11.9-12.71,16.73-11.3,10.95-24.72,18.68-40.24,22.09-6.4,1.41-13,1.94-19.85,2.91v50.95c3.64-4,7.05-7.9,10.62-11.64,12.23-12.87,26.9-22.26,43.1-29.17a132.71,132.71,0,0,1,33.25-8.88c15.46-2.24,31-.9,46.46-1.25,4.28-.09,8.56,4.44,8.12,9.15-.78,8.21-1.6,16.5-3.52,24.49a112.91,112.91,0,0,1-16.5,37.3c-5.16,7.57-10.59,15.16-17,21.6-18.57,18.57-40.78,31.15-66.59,36.6a157.46,157.46,0,0,1-26.75,2.85c-13,.46-26.07.19-39.1.1a133.06,133.06,0,0,1-53.82-11.26A142.94,142.94,0,0,1,46.1,271C30.23,258,18.87,241.88,10.47,223.51A112.72,112.72,0,0,1,.75,189.14c-.33-2.93-.4-5.9-.71-8.85-.53-5,4.6-10.29,10-10,8.74.49,17.53.23,26.29.11a133.54,133.54,0,0,1,36.67,5,126.86,126.86,0,0,1,38.49,17.9,119.57,119.57,0,0,1,29.08,27.25A8.42,8.42,0,0,0,141.82,221.62ZM117.45,58.17,74.79,27.39c0,11.94-.18,23.11,0,34.27.24,11.56.31,23.16,1.46,34.64,1.7,16.93,11,30,23.67,40.6,13,10.79,28.57,14.76,45.22,14.81,5.84,0,11.67-.61,17.51-.6A56.47,56.47,0,0,0,183,147.52a67.84,67.84,0,0,0,36.52-31.9c5.39-9.86,7.39-20.65,7.54-31.71.25-17.4.07-34.81.07-52.22V27.4L184.5,58.17,150.94,22.68ZM19.53,189.76c12.07,67.32,76.15,99.68,122.74,93.58-.33-5.9-.77-11.83-1-17.77a44.84,44.84,0,0,0-7.14-22.33c-6.64-10.76-14.62-20.47-24.76-28A164.3,164.3,0,0,0,85.2,199.7a90.35,90.35,0,0,0-37.74-9.88C38.19,189.52,28.91,189.76,19.53,189.76Zm140.6,93.82c56.32,5.47,112.85-35.41,122.26-94.48-12.84.23-25.57-.44-38.34,1.9a114.7,114.7,0,0,0-40.91,16.21c-12.08,7.63-21.68,17.8-30.63,28.92C161.1,250.32,159.15,266.44,160.13,283.58Z"/><path class="cls-1" d="M117.45,58.17l33.49-35.49L184.5,58.17,227.12,27.4v4.29c0,17.41.18,34.82-.07,52.22-.15,11.06-2.15,21.85-7.54,31.71A67.84,67.84,0,0,1,183,147.52a56.47,56.47,0,0,1-20.29,3.59c-5.84,0-11.67.62-17.51.6-16.65-.05-32.24-4-45.22-14.81C87.28,126.34,78,113.23,76.3,96.3c-1.15-11.48-1.22-23.08-1.46-34.64-.23-11.16,0-22.33,0-34.27Z"/><path class="cls-1" d="M19.53,189.76c9.38,0,18.66-.24,27.93.06A90.35,90.35,0,0,1,85.2,199.7a164.3,164.3,0,0,1,24.2,15.51c10.14,7.56,18.12,17.27,24.76,28a44.84,44.84,0,0,1,7.14,22.33c.2,5.94.64,11.87,1,17.77C95.68,289.44,31.6,257.08,19.53,189.76Z"/><path class="cls-1" d="M160.13,283.58c-1-17.14,1-33.26,12.38-47.45,9-11.12,18.55-21.29,30.63-28.92A114.7,114.7,0,0,1,244.05,191c12.77-2.34,25.5-1.67,38.34-1.9C273,248.17,216.45,289.05,160.13,283.58Z"/></g></g></svg>